<svg xmlns="http://www.w3.org/2000/svg" width="270" height="80" viewBox="0 0 135 40"><path d="M130.2 40H4.7C2.1 40 0 37.9 0 35.3V4.7C0 2.1 2.1 0 4.7 0h125.5c2.6 0 4.8 2.1 4.8 4.7v30.5c0 2.7-2.2 4.8-4.8 4.8z" fill="#a6a6a6"/><path d="M134 35.3c0 2.1-1.7 3.8-3.8 3.8H4.7c-2.1 0-3.8-1.7-3.8-3.8V4.7C.9 2.6 2.6.9 4.7.9h125.5c2.1 0 3.8 1.7 3.8 3.8v30.6z"/><path d="M30.1 19.8c0-3.2 2.6-4.8 2.8-4.9-1.5-2.2-3.9-2.5-4.7-2.5-2-.2-3.9 1.2-4.9 1.2-1 0-2.6-1.2-4.2-1.1-2.1 0-4.1 1.3-5.2 3.2-2.3 3.9-.6 9.7 1.6 12.9 1.1 1.6 2.4 3.3 4 3.2 1.6-.1 2.2-1 4.2-1 1.9 0 2.5 1 4.2 1 1.7 0 2.8-1.6 3.9-3.1 1.3-1.8 1.8-3.5 1.8-3.6-.1-.2-3.4-1.5-3.5-5.3zm-3.2-9.5c.9-1.1 1.5-2.6 1.3-4.1-1.3.1-2.8.9-3.8 1.9-.8.9-1.5 2.5-1.3 3.9 1.5.2 2.9-.6 3.8-1.7zM54 17.2h-2l-1.1-3.5h-3.8l-1 3.5h-2l3.8-11.8h2.3L54 17.2zm-3.4-4.9l-1-3.1c-.1-.3-.3-1-.6-2.2-.1.5-.3 1.2-.6 2.2l-1 3.1h3.2zm13.1.5c0 1.4-.4 2.6-1.2 3.4-.6.8-1.5 1.2-2.5 1.2-1.1 0-1.9-.4-2.4-1.2v4.5h-1.9v-9.1c0-.9 0-1.8-.1-2.8h1.7l.1 1.3C58 9 59 8.5 60.2 8.5c1 0 1.8.4 2.5 1.2.7.8 1 1.8 1 3.1zm-1.9.1c0-.8-.2-1.5-.6-2-.4-.6-1-.8-1.6-.8-.5 0-.9.2-1.3.5s-.6.7-.7 1.2c-.1.2-.1.4-.1.6v1.4c0 .6.2 1.1.6 1.6.4.4.9.6 1.5.6.7 0 1.3-.3 1.7-.8.3-.7.5-1.4.5-2.3zm11.7-.1c0 1.4-.4 2.6-1.2 3.4-.7.7-1.6 1.1-2.6 1.1-1.1 0-1.9-.4-2.4-1.2v4.5h-1.9v-9.1c0-.9 0-1.8-.1-2.8H67l.1 1.3c.6-1 1.6-1.5 2.9-1.5 1 0 1.8.4 2.5 1.2.7.8 1 1.8 1 3.1zm-1.9.1c0-.8-.2-1.5-.6-2-.4-.6-1-.8-1.6-.8-.5 0-.9.2-1.3.5s-.6.7-.7 1.2c-.1.2-.1.4-.1.6v1.4c0 .6.2 1.1.6 1.6.4.4.9.6 1.5.6.7 0 1.3-.3 1.7-.8.3-.7.5-1.4.5-2.3zm15.2 1c0 1-.3 1.8-1 2.4-.8.7-1.8 1-3.2 1-1.3 0-2.3-.2-3-.7L80 15c.8.5 1.7.7 2.7.7.7 0 1.3-.2 1.7-.5.4-.3.6-.7.6-1.3 0-.5-.2-.9-.5-1.2-.3-.3-.9-.6-1.6-.9-2.1-.8-3.1-1.9-3.1-3.4 0-1 .4-1.8 1.1-2.4s1.7-.9 2.9-.9c1.1 0 2 .2 2.7.6L86 7.2c-.7-.4-1.4-.5-2.3-.5-.7 0-1.2.2-1.6.5-.3.3-.5.6-.5 1.1 0 .5.2.8.5 1.2.3.3.9.6 1.7.9 1 .4 1.8.9 2.2 1.4.5.6.8 1.3.8 2.1zm6.2-3.8h-2.1v4.1c0 1 .4 1.6 1.1 1.6.3 0 .6 0 .8-.1l.1 1.4c-.4.1-.9.2-1.5.2-.7 0-1.3-.2-1.7-.7-.4-.5-.6-1.2-.6-2.3V10h-1.2V8.7h1.2V7.1l1.8-.6v2.1H93v1.5zm9.4 2.8c0 1.3-.4 2.4-1.1 3.2-.8.9-1.8 1.3-3.1 1.3-1.2 0-2.2-.4-3-1.2s-1.1-1.9-1.1-3.1c0-1.3.4-2.4 1.1-3.2.8-1 1.8-1.4 3.1-1.4 1.2 0 2.2.4 3 1.2.7.9 1.1 1.9 1.1 3.2zm-2 0c0-.8-.2-1.4-.5-2-.4-.7-1-1-1.7-1-.8 0-1.3.3-1.7 1-.3.6-.5 1.2-.5 2s.2 1.4.5 2c.4.7 1 1 1.7 1s1.3-.3 1.7-1c.3-.5.5-1.2.5-2zm8.1-2.5c-.2 0-.4-.1-.6-.1-.7 0-1.2.2-1.5.8-.3.4-.5 1-.5 1.7v4.5H104v-5.8c0-1 0-1.9-.1-2.7h1.6l.1 1.6h.1c.2-.6.5-1 .9-1.3.4-.3.9-.5 1.4-.5h.5v1.8zm8.4 2.1c0 .3 0 .6-.1.9h-5.7c0 .8.3 1.5.8 1.9.5.4 1.1.6 1.9.6.8 0 1.6-.1 2.3-.4l.3 1.3c-.8.3-1.8.5-2.8.5-1.3 0-2.3-.4-3.1-1.2-.8-.8-1.1-1.8-1.1-3.1s.4-2.3 1-3.2c.7-.9 1.7-1.4 3-1.4 1.2 0 2.1.5 2.8 1.4.5.8.7 1.7.7 2.7zm-1.8-.5c0-.6-.1-1-.4-1.4-.3-.5-.8-.8-1.5-.8-.6 0-1.1.3-1.5.8-.3.4-.5.9-.6 1.5l4-.1zM46.3 26.9c.2-.9.4-1.8.5-2.7l1 .1c-.1.8-.3 1.7-.5 2.5h.8c1.6 0 2.3.8 2.3 2.6s-.3 3.4-.7 4.1c-.4.6-.8.8-1.5.8-.6 0-1.2-.1-1.7-.2l.1-.9c.5.2 1 .2 1.4.2.4 0 .6-.1.8-.4.4-.6.6-2 .6-3.5 0-1.3-.4-1.7-1.4-1.7h-1c-.6 2.4-1.5 4.5-2.6 6l-.9-.5c1-1.3 1.9-3.3 2.4-5.5-.8.1-1.6.2-2.4.4l-.2-.9c1-.2 2.1-.3 3-.4zM54 31l-1 .2c-.2-1.5-.9-3.3-2.1-4.6l.8-.5c1.3 1.4 2.1 3.4 2.3 4.9zm2.8-.8c1.2-.8 2.6-1.4 3.9-1.4 1.8 0 2.9.9 2.9 2.4 0 1.9-1.5 3.1-5.2 3.1h-.6l-.2-.9h.9c2.9 0 4-.8 4-2.1 0-1-.7-1.6-2.1-1.6-1.2 0-2.6.7-3.9 1.8l-.8-.4c0-2.5.3-3.7 1.2-5l.9.3c-.8 1.2-1 2.3-1 3.8zm-.1-5.1l.3-.9c1.6.2 4.1.8 5.2 1.2l-.3.9c-1.1-.4-3.7-1-5.2-1.2zm11.6 3.1c.9.5 2 1.2 2.8 1.8.7-1.1 1.2-2.2 1.4-3.4h-3.8c-.9 1.4-2 2.7-3.1 3.5l-.8-.7c1.6-1.2 3.2-3.5 3.9-5.2l1 .3c-.1.4-.3.7-.5 1.1H73l.7.4c-.8 3.8-3 6.9-6.4 8.3l-.7-.9c1.6-.6 2.8-1.5 3.8-2.7-.8-.6-1.9-1.4-2.8-1.9l.7-.6zm4.6-4.4c.5.5.9 1 1.2 1.6l-.5.4c-.4-.6-.7-1.1-1.2-1.6l.5-.4zm1.5-.3c.5.5.9 1 1.2 1.6l-.6.4c-.3-.6-.7-1.1-1.2-1.6l.6-.4zm6 2.8v-2h1.1v2h3.1l.9.4c-.3 3.6-1.7 6.3-5.4 7.7l-.6-.9c3.5-1.2 4.7-3.5 4.9-6.2H78V30h-1.1v-3.7h3.5zm10.9 1.1l-.7.9c-.6-.6-2-1.6-3-2.1l.7-.8c.9.4 2.2 1.4 3 2zm4.5 0l.7.8c-1.6 2.6-4.9 5.1-8.1 6.1l-.5-1c3-.9 6.3-3.3 7.9-5.9zm11.1-1.7v7.9h-8.4v-7.9h8.4zm-1.1 6.9v-5.9h-6.2v5.9h6.2zm13.1-3.8v1.1h-9.5v-1.1h9.5zm9.4 1.6l-.7.9c-1.3-.9-3.1-2-4.6-2.7v5.7h-1.1V24.2h1.1v3.2c1.6.8 3.8 2 5.3 3zm-2.7-4.9c.4.4.8 1 1.2 1.6l-.5.3c-.3-.5-.7-1.1-1.1-1.6l.4-.3zm1.2-.8c.4.4.8 1 1.2 1.5l-.5.3c-.3-.5-.7-1.1-1.1-1.5l.4-.3z" fill="#fff"/></svg>