<svg xmlns="http://www.w3.org/2000/svg" width="755.656" height="169.654" viewBox="0 0 755.656 169.654">
  <g id="グループ_10" data-name="グループ 10" transform="translate(-45.438 -633.244)">
    <g id="グループ_9" data-name="グループ 9">
      <g id="グループ_3" data-name="グループ 3">
        <g id="グループ_1" data-name="グループ 1">
          <path id="パス_1" data-name="パス 1" d="M312.166,699.59a17.664,17.664,0,0,1-3.874.417H284.13V683.552a21.963,21.963,0,0,1,.43-3.935,1.02,1.02,0,0,0-1-1.207H272.534a1.021,1.021,0,0,0-1.006,1.187,19.777,19.777,0,0,1,.345,3.955v16.455H241.8a20.516,20.516,0,0,1-3.894-.422,1.021,1.021,0,0,0-1.249.994v4.57a1.019,1.019,0,0,0,.385.8,1.032,1.032,0,0,0,.863.2,18.546,18.546,0,0,1,3.9-.42h30.077v1.846c0,10.724-1.936,18.544-6.107,24.625-4.556,6.962-14.54,13.277-21.8,13.79a1.019,1.019,0,0,0-.879,1.387l1.434,3.676a1.025,1.025,0,0,0,.644.6,1.073,1.073,0,0,0,.307.046,1.022,1.022,0,0,0,.566-.171,7.807,7.807,0,0,1,2.451-.953l.856-.262c25.307-7.492,35.06-19.479,34.786-42.741v-1.846h24.162a19.319,19.319,0,0,1,3.936.429,1.019,1.019,0,0,0,1.206-1v-4.57a1.019,1.019,0,0,0-1.268-.989Z" fill="#386cb0"/>
          <path id="パス_2" data-name="パス 2" d="M379.856,678.513a1.019,1.019,0,0,0-1.617.281c-3.118,6.236-16.428,19.2-25.917,25.242-10.1,6.824-25.186,13.275-31.643,13.537a1.02,1.02,0,0,0-.919,1.364l1.254,3.5a1.02,1.02,0,0,0,1.448.551,11.391,11.391,0,0,1,3.477-1.061,131.922,131.922,0,0,0,29.428-9.694V747.18a17.992,17.992,0,0,1-.425,4.27,1.02,1.02,0,0,0,1,1.23h10.485a1.019,1.019,0,0,0,1-1.22,25.019,25.019,0,0,1-.428-4.28V706.073a92.648,92.648,0,0,0,18.2-15.293,19.977,19.977,0,0,1,2.829-2.838,1.019,1.019,0,0,0,.079-1.542Z" fill="#386cb0"/>
          <path id="パス_3" data-name="パス 3" d="M466.627,718.983l-2.116-1.322a105.552,105.552,0,0,0-37.016-15.407v-18.97a26.046,26.046,0,0,1,.43-4.294,1.02,1.02,0,0,0-1-1.208H416.438a1.02,1.02,0,0,0-1,1.22,18.536,18.536,0,0,1,.428,4.282v63.537a18.033,18.033,0,0,1-.426,4.271,1.021,1.021,0,0,0,1,1.23h10.485a1.02,1.02,0,0,0,1-1.22,24.957,24.957,0,0,1-.428-4.281V708.388a85.059,85.059,0,0,1,31.471,21.1,1.021,1.021,0,0,0,1.589-.093l6.363-8.961a1.02,1.02,0,0,0-.291-1.455Z" fill="#386cb0"/>
          <path id="パス_4" data-name="パス 4" d="M537.082,695.684H542.1a.746.746,0,0,0,.734-1.02l-3.37-12.008a1.448,1.448,0,0,0-1.306-1.02H533.14a.746.746,0,0,0-.734,1.02l3.37,12.008A1.448,1.448,0,0,0,537.082,695.684Z" fill="#386cb0"/>
          <path id="パス_5" data-name="パス 5" d="M541.912,718.983l-2.116-1.322a105.529,105.529,0,0,0-37.016-15.407v-18.97a26.037,26.037,0,0,1,.429-4.294,1.011,1.011,0,0,0-.217-.839,1.022,1.022,0,0,0-.785-.369H491.723a1.022,1.022,0,0,0-1,1.22,18.482,18.482,0,0,1,.429,4.282v63.537a17.98,17.98,0,0,1-.427,4.271,1.022,1.022,0,0,0,1,1.23h10.484a1.02,1.02,0,0,0,1-1.22,24.959,24.959,0,0,1-.427-4.281V708.388a85.055,85.055,0,0,1,31.47,21.1.987.987,0,0,0,.817.334,1.018,1.018,0,0,0,.771-.427l6.363-8.961a1.02,1.02,0,0,0-.289-1.455Z" fill="#386cb0"/>
          <path id="パス_6" data-name="パス 6" d="M525.419,695.684h5.019a.746.746,0,0,0,.733-1.02l-3.37-12.008a1.448,1.448,0,0,0-1.306-1.02h-5.018a.747.747,0,0,0-.734,1.02l3.37,12.008A1.448,1.448,0,0,0,525.419,695.684Z" fill="#386cb0"/>
          <path id="パス_7" data-name="パス 7" d="M628.574,690.329h-36.2a62.444,62.444,0,0,0,2.3-5.9,40.861,40.861,0,0,1,1.474-3.823,1.02,1.02,0,0,0-.649-1.441l-10.754-2.868a1.017,1.017,0,0,0-1.279.9c-.524,6.634-5.624,19.482-10.119,25.474-4.767,6.635-11.935,12.758-14.461,13.116a1.019,1.019,0,0,0-.7,1.587l2.151,3.138a1.024,1.024,0,0,0,.785.442,1.006,1.006,0,0,0,.831-.356,11.644,11.644,0,0,1,2.837-1.912c12.77-6.74,19.077-12.528,24.685-22.735h25.988c-2.612,16.391-9.758,29.651-21.254,39.431-7.656,6.6-18.329,11.772-24.825,12.032a1.018,1.018,0,0,0-.907,1.4l1.433,3.584a1.023,1.023,0,0,0,.946.641,1.033,1.033,0,0,0,.389-.077,26.509,26.509,0,0,1,3.984-1.3c31.51-7.9,48.105-25.508,53.807-57.089v0l.538-3.046a1.021,1.021,0,0,0-1-1.2Z" fill="#386cb0"/>
          <path id="パス_8" data-name="パス 8" d="M716.609,688.446H680.833c.624-1.4,1.178-2.8,1.716-4.346a12.932,12.932,0,0,1,1.661-3.836,1.019,1.019,0,0,0-.566-1.545l-10.216-2.958a1.023,1.023,0,0,0-1.3.866c-.607,5.389-5.052,16.836-8.823,22.71-4.194,6.99-14.186,16.244-17.541,17.005a1.02,1.02,0,0,0-.608,1.583l2.15,3.048a1.019,1.019,0,0,0,.833.432h.013a1.02,1.02,0,0,0,.835-.454.92.92,0,0,1,.183-.182c.064-.054.13-.112.2-.179.231-.127.589-.342,1.063-.63.459-.277,1.032-.625,1.736-1.038,7.57-4.679,10.732-6.788,14.071-9.786a93.177,93.177,0,0,1,20.708,20.4c-8.975,9.177-23.661,17.093-32.488,17.433a1.021,1.021,0,0,0-.919,1.37l1.345,3.673a1.02,1.02,0,0,0,.57.592,1,1,0,0,0,.388.077,1.026,1.026,0,0,0,.433-.095,18.988,18.988,0,0,1,4.54-1.362c34.184-7.658,51.7-26.658,56.8-61.609a1.022,1.022,0,0,0-1.01-1.168Zm-12.246,5.626c-1.92,10.068-5.64,19.772-10.337,26.985a108.276,108.276,0,0,0-23.193-16.38,60.452,60.452,0,0,0,7.309-10.6Z" fill="#386cb0"/>
          <path id="パス_9" data-name="パス 9" d="M800.7,713.036a1.017,1.017,0,0,0-.873-.186,19.268,19.268,0,0,1-3.877.417H733.489a15.307,15.307,0,0,1-3.677-.383,1.021,1.021,0,0,0-1.377.956v6.272a1.02,1.02,0,0,0,1.422.937,10.638,10.638,0,0,1,3.632-.364h62.463a22.1,22.1,0,0,1,3.923.427,1.018,1.018,0,0,0,1.219-1V713.84A1.02,1.02,0,0,0,800.7,713.036Z" fill="#386cb0"/>
        </g>
        <g id="グループ_2" data-name="グループ 2">
          <path id="パス_10" data-name="パス 10" d="M387.12,773.949h-1.327a.306.306,0,0,0-.306.307v13.959l-11.3-14.151a.311.311,0,0,0-.239-.115h-3.819a.306.306,0,0,0-.306.307V795.01a.306.306,0,0,0,.306.307h1.3a.306.306,0,0,0,.306-.307V777.678L385.664,795.2a.309.309,0,0,0,.239.116h1.217a.306.306,0,0,0,.306-.307V774.256A.306.306,0,0,0,387.12,773.949Z" fill="#386cb0"/>
          <path id="長方形_1" data-name="長方形 1" d="M.307,0H4.042a.306.306,0,0,1,.306.306V21.061a.307.307,0,0,1-.307.307H.306A.306.306,0,0,1,0,21.062V.307A.307.307,0,0,1,.307,0Z" transform="translate(397.464 773.949)" fill="#386cb0"/>
          <path id="パス_11" data-name="パス 11" d="M430.615,785.294h-6.67a.307.307,0,0,0-.306.307v1.108a.307.307,0,0,0,.306.307h2.849v5.809a7.924,7.924,0,0,1-3.761.91,6.707,6.707,0,0,1-4.233-1.643,9.148,9.148,0,0,1-3.182-7.21c0-5.353,3-9.545,6.833-9.545a6.927,6.927,0,0,1,5.705,3.116.312.312,0,0,0,.217.12.355.355,0,0,0,.234-.08l1.937-1.771a.3.3,0,0,0-.012-.462c-2.2-1.807-4.772-2.614-8.33-2.614-6.688,0-11.181,4.584-11.181,11.4,0,6.638,4.138,10.6,11.07,10.6a13.711,13.711,0,0,0,8.709-2.859.306.306,0,0,0,.121-.243V785.6A.307.307,0,0,0,430.615,785.294Z" fill="#386cb0"/>
          <path id="パス_12" data-name="パス 12" d="M458.338,773.949h-3.569a.306.306,0,0,0-.306.307v9.074H443.977v-9.074a.305.305,0,0,0-.3-.307H440.1a.306.306,0,0,0-.306.307V795.01a.306.306,0,0,0,.306.307h3.569a.305.305,0,0,0,.3-.307v-9.959h10.486v9.959a.306.306,0,0,0,.306.307h3.569a.306.306,0,0,0,.306-.307V774.256A.306.306,0,0,0,458.338,773.949Z" fill="#386cb0"/>
          <path id="パス_13" data-name="パス 13" d="M485.73,773.949H466.525a.306.306,0,0,0-.306.307v1.107a.306.306,0,0,0,.306.307h7.47v19.34a.306.306,0,0,0,.306.307h3.68a.306.306,0,0,0,.306-.307V775.67h7.443a.306.306,0,0,0,.306-.307v-1.107A.306.306,0,0,0,485.73,773.949Z" fill="#386cb0"/>
          <path id="パス_14" data-name="パス 14" d="M521.958,775.054a16.837,16.837,0,0,0-5.657-1.105h-8.384a.306.306,0,0,0-.306.307V795.01a.306.306,0,0,0,.306.307h8.494c7.494,0,11.293-3.558,11.293-10.573C527.7,780.254,525.611,776.724,521.958,775.054Zm-10.139.616h4.261a7.294,7.294,0,0,1,4.663,1.634c1.56,1.428,2.53,4.289,2.53,7.468,0,3.435-1.085,6.23-2.982,7.672a6.783,6.783,0,0,1-4.073,1.154h-4.4Z" fill="#386cb0"/>
          <path id="パス_15" data-name="パス 15" d="M546.9,773.646c-6.788,0-11.348,4.383-11.348,10.905,0,6.949,4.243,11.1,11.348,11.1,7.036,0,11.238-4.13,11.238-11.045C558.14,777.949,553.729,773.646,546.9,773.646Zm-.028,1.775c3.911,0,6.64,3.753,6.64,9.13,0,5.734-2.544,9.3-6.64,9.3-4.068,0-6.7-3.628-6.7-9.242C540.178,779.284,542.995,775.421,546.874,775.421Z" fill="#386cb0"/>
          <path id="パス_16" data-name="パス 16" d="M577.336,775.337a7.092,7.092,0,0,1,5.585,3.184.3.3,0,0,0,.229.135.336.336,0,0,0,.249-.1l1.827-1.937a.308.308,0,0,0,.081-.231.311.311,0,0,0-.115-.219,11.329,11.329,0,0,0-7.688-2.528c-6.746,0-11.459,4.7-11.459,11.431,0,6.62,4.221,10.573,11.291,10.573a11.925,11.925,0,0,0,7.856-2.779.305.305,0,0,0,.063-.411l-.691-1.024a.309.309,0,0,0-.207-.131.3.3,0,0,0-.237.063,9.969,9.969,0,0,1-6.23,2.367c-4.012,0-7.275-3.984-7.275-8.881C570.615,779.427,573.5,775.337,577.336,775.337Z" fill="#386cb0"/>
          <path id="パス_17" data-name="パス 17" d="M611.676,773.949H592.471a.307.307,0,0,0-.307.307v1.107a.307.307,0,0,0,.307.307h7.469v19.34a.306.306,0,0,0,.307.307h3.679a.306.306,0,0,0,.307-.307V775.67h7.443a.307.307,0,0,0,.307-.307v-1.107A.307.307,0,0,0,611.676,773.949Z" fill="#386cb0"/>
          <path id="パス_18" data-name="パス 18" d="M629.8,773.646c-6.788,0-11.35,4.383-11.35,10.905,0,6.949,4.244,11.1,11.35,11.1,7.034,0,11.236-4.13,11.236-11.045C641.033,777.949,636.622,773.646,629.8,773.646Zm-.028,1.775c3.909,0,6.638,3.753,6.638,9.13,0,5.734-2.544,9.3-6.638,9.3-4.068,0-6.7-3.628-6.7-9.242C623.073,779.284,625.888,775.421,629.769,775.421Z" fill="#386cb0"/>
          <path id="パス_19" data-name="パス 19" d="M667.873,794.841,661.3,784.9c.291-.038.6-.092.807-.132a5.219,5.219,0,0,0,4.3-5.2,5.023,5.023,0,0,0-2.737-4.67,10.418,10.418,0,0,0-5.234-.95h-8.468a.306.306,0,0,0-.307.307V795.01a.306.306,0,0,0,.307.307h3.57a.306.306,0,0,0,.306-.307v-9.987H656.6l6.414,10.151a.306.306,0,0,0,.259.143h4.343a.3.3,0,0,0,.269-.161A.307.307,0,0,0,667.873,794.841ZM653.84,775.67h2.877a8.655,8.655,0,0,1,3.046.367,3.817,3.817,0,0,1-.639,7.134,11.548,11.548,0,0,1-2.3.131H653.84Z" fill="#386cb0"/>
        </g>
      </g>
      <g id="グループ_8" data-name="グループ 8">
        <path id="パス_20" data-name="パス 20" d="M199.693,710.926c9.425-6.681,6.964-18.125-1.873-13.049-5.279,3.033-21.565,12.806-33.449,19.958-.419-1.1-.878-2.219-1.366-3.342,6.284-18.611,2.218-31.134-6.379-38.625,5.02-3.306,2.1-9.415,2.1-9.415l-8.993,4.876a39.3,39.3,0,0,0-6.274-2.429,14.117,14.117,0,0,0-27.377,0,39.3,39.3,0,0,0-6.274,2.429l-8.993-4.876s-2.918,6.109,2.1,9.415c-8.786,7.656-12.836,20.569-5.945,39.865-13.166,24.838-2.424,74.538,66.63,68.853l.308,13.492a4.48,4.48,0,0,0,7.693,2.657,4.481,4.481,0,0,0,8.289-2.819,4.478,4.478,0,0,0,4.421-7.077s-8.481-9.617-12.7-14.591c-4.813-5.677-2.506-16.025-2.425-29.54,19.1,7.644,22.341-3.225,18.287-7.279,12.222-.188,16.358-10.717,9.379-13.341C207.033,721.191,207.785,710.662,199.693,710.926Z" fill="#386cb0"/>
        <path id="パス_21" data-name="パス 21" d="M189.2,661.407h-4.382a3.4,3.4,0,0,0-3.4,3.4v4.382a6.212,6.212,0,0,1-12.425,0v-4.382a3.4,3.4,0,0,0-3.4-3.4h-4.382a6.212,6.212,0,1,1,0-12.425h4.382a3.4,3.4,0,0,0,3.4-3.4V641.2a6.212,6.212,0,1,1,12.425,0v4.382a3.4,3.4,0,0,0,3.4,3.4H189.2a6.212,6.212,0,0,1,0,12.425Z" fill="#ffcc01"/>
        <path id="パス_22" data-name="パス 22" d="M207.281,747.3a1.276,1.276,0,0,0-1.661.49,71.384,71.384,0,1,1-45.166-106.026,1.275,1.275,0,0,0,.766-2.424A84.266,84.266,0,1,0,207.9,748.923,1.275,1.275,0,0,0,207.281,747.3Z" fill="#ffcc01"/>
        <path id="パス_23" data-name="パス 23" d="M145.389,679.358a24.355,24.355,0,0,0-3.492.254,14.107,14.107,0,0,1-24.249,0,24.467,24.467,0,0,0-3.489-.253,15.844,15.844,0,0,0,0,31.688,28.665,28.665,0,0,0,15.615-5.082,28.665,28.665,0,0,0,15.615,5.082,15.844,15.844,0,0,0,0-31.688Z" fill="#fff"/>
        <circle id="楕円形_1" data-name="楕円形 1" cx="11.251" cy="11.251" r="11.251" transform="translate(118.521 661.12)" fill="#fff"/>
        <g id="グループ_4" data-name="グループ 4">
          <path id="パス_24" data-name="パス 24" d="M114.158,687.389a7.813,7.813,0,1,0,7.813,7.813A7.822,7.822,0,0,0,114.158,687.389Z" fill="#ffcc01"/>
          <path id="パス_25" data-name="パス 25" d="M145.387,687.389A7.813,7.813,0,1,0,153.2,695.2,7.822,7.822,0,0,0,145.387,687.389Z" fill="#ffcc01"/>
          <path id="パス_26" data-name="パス 26" d="M129.772,694.934s-3.858,1.142-3.858,4.931a14.6,14.6,0,0,0,3.858,9.615,14.6,14.6,0,0,0,3.859-9.615C133.631,696.076,129.772,694.934,129.772,694.934Z" fill="#ffcc01"/>
        </g>
        <g id="グループ_5" data-name="グループ 5">
          <path id="パス_27" data-name="パス 27" d="M149.955,777.221c-9.431.923-10.968,8.148-7.4,8.411,1.222.09,2.062-1.48,3.183-2.221-.684,1.69-.052,3.621,1.8,3.739,1.69.108,2.266-2.552,3.452-3.128.384,2.1,1.978,3.344,3.6,2.517,2.478-1.266-.684-4.35,2.161-6.987A8.53,8.53,0,0,0,149.955,777.221Z" fill="#fff"/>
          <path id="パス_28" data-name="パス 28" d="M125.575,777.5c-9.431.923-10.969,8.148-7.4,8.411,1.222.09,2.062-1.48,3.183-2.221-.683,1.69-.052,3.621,1.8,3.739,1.69.108,2.265-2.552,3.451-3.128.384,2.1,1.978,3.344,3.6,2.517,2.478-1.266-.683-4.35,2.161-6.987A8.532,8.532,0,0,0,125.575,777.5Z" fill="#fff"/>
          <path id="パス_29" data-name="パス 29" d="M163.945,711.487a74.509,74.509,0,0,1-2.453,7.111c-.071.177-.156.335-.236.5-.426,5.348-3.994,12.013-8.858,17.014a8.383,8.383,0,0,0-4.665-1.417,8.45,8.45,0,1,0,8.45,8.45,8.367,8.367,0,0,0-.944-3.855c5.876-5.952,10.058-14.036,10.306-20.6A13.426,13.426,0,0,0,163.945,711.487Z" fill="#fff"/>
          <path id="パス_30" data-name="パス 30" d="M117.911,760.806a2.174,2.174,0,0,0-4.281-.543s-.161.1-.538.375a.734.734,0,0,1-.946-.165c-6.387-6.89-13-15.064-12.425-20.653a8.4,8.4,0,0,1,9.414-6.545c5.439,1.4,10.8,10.445,15.03,18.83.1.207.2.681-.106.909s-.468.325-.468.325-.028,0-.043,0a2.179,2.179,0,1,0,2.105,2.712l1.969-1.369a1.7,1.7,0,0,0,.554-2.146c-5.229-10.622-11.053-20.7-18.19-22.549a9.815,9.815,0,0,0-7.043.886c-3.018-4.43-4.389-8.4-4.6-11.658-.1-.2-.2-.4-.29-.613-.982-2.452-1.787-4.8-2.439-7.062-3.386,6.074-.857,14.7,3.866,21.771a9.77,9.77,0,0,0-3.141,6.164c-.756,7.332,6.668,16.3,14.8,24.9a1.7,1.7,0,0,0,2.205.227l2.329-1.623c.019,0,.036.006.055.006A2.18,2.18,0,0,0,117.911,760.806Z" fill="#fff"/>
        </g>
        <circle id="楕円形_2" data-name="楕円形 2" cx="4.971" cy="4.971" r="4.971" transform="translate(142.762 738.174)" fill="#386cb0"/>
        <g id="グループ_6" data-name="グループ 6">
          <circle id="楕円形_3" data-name="楕円形 3" cx="3.478" cy="3.478" r="3.478" transform="translate(126.294 668.893)" fill="#386cb0"/>
          <path id="パス_31" data-name="パス 31" d="M114.158,690.121a5.081,5.081,0,1,0,5.082,5.081A5.087,5.087,0,0,0,114.158,690.121Z" fill="#386cb0"/>
          <path id="パス_32" data-name="パス 32" d="M145.387,690.121a5.081,5.081,0,1,0,5.082,5.081A5.086,5.086,0,0,0,145.387,690.121Z" fill="#386cb0"/>
        </g>
        <g id="グループ_7" data-name="グループ 7">
          <path id="パス_33" data-name="パス 33" d="M148.659,690.29a1.975,1.975,0,1,0,1.975,1.975A1.975,1.975,0,0,0,148.659,690.29Z" fill="#fff"/>
          <path id="パス_34" data-name="パス 34" d="M117.383,690.29a1.975,1.975,0,1,0,1.975,1.975A1.975,1.975,0,0,0,117.383,690.29Z" fill="#fff"/>
        </g>
      </g>
    </g>
  </g>
</svg>
