<svg xmlns="http://www.w3.org/2000/svg" width="564.441" height="511.004" viewBox="0 0 564.441 511.004">
  <g id="グループ_21" data-name="グループ 21" transform="translate(-138.62 -41.499)">
    <g id="グループ_13" data-name="グループ 13">
      <g id="グループ_11" data-name="グループ 11">
        <path id="パス_35" data-name="パス 35" d="M214.133,456.443a17.659,17.659,0,0,1-3.874.418H186.1V440.4a22.048,22.048,0,0,1,.43-3.934,1.021,1.021,0,0,0-1-1.208H174.5a1.021,1.021,0,0,0-1.006,1.188,19.77,19.77,0,0,1,.344,3.954v16.456H143.763a20.514,20.514,0,0,1-3.894-.423,1.023,1.023,0,0,0-1.249.994V462a1.019,1.019,0,0,0,.385.8,1.032,1.032,0,0,0,.863.2,18.545,18.545,0,0,1,3.9-.421H173.84v1.847c0,10.724-1.936,18.543-6.107,24.624-4.556,6.962-14.54,13.277-21.8,13.79a1.021,1.021,0,0,0-.879,1.388l1.435,3.676a1.02,1.02,0,0,0,.643.6,1.026,1.026,0,0,0,.874-.124,7.779,7.779,0,0,1,2.45-.954l.857-.262c25.306-7.491,35.059-19.478,34.785-42.74v-1.847h24.162a19.316,19.316,0,0,1,3.936.43,1.021,1.021,0,0,0,1.206-1v-4.571a1.02,1.02,0,0,0-1.268-.989Z" fill="#fff"/>
        <path id="パス_36" data-name="パス 36" d="M281.823,435.367a1.02,1.02,0,0,0-1.617.281c-3.118,6.235-16.428,19.2-25.917,25.242-10.1,6.823-25.186,13.275-31.643,13.537a1.021,1.021,0,0,0-.919,1.363l1.254,3.5a1.022,1.022,0,0,0,1.448.551,11.363,11.363,0,0,1,3.477-1.061,131.926,131.926,0,0,0,29.428-9.694v34.951a17.993,17.993,0,0,1-.425,4.27,1.02,1.02,0,0,0,1,1.23h10.485a1.019,1.019,0,0,0,1-1.22,25.019,25.019,0,0,1-.428-4.28V462.927a92.682,92.682,0,0,0,18.2-15.293,19.977,19.977,0,0,1,2.829-2.838,1.019,1.019,0,0,0,.079-1.542Z" fill="#fff"/>
        <path id="パス_37" data-name="パス 37" d="M368.594,475.836l-2.116-1.322a105.536,105.536,0,0,0-37.015-15.406V440.137a26.038,26.038,0,0,1,.429-4.293,1.019,1.019,0,0,0-1-1.208H318.4a1.019,1.019,0,0,0-1,1.22,18.473,18.473,0,0,1,.428,4.281v63.538a17.978,17.978,0,0,1-.426,4.27,1.021,1.021,0,0,0,1,1.231H328.89a1.021,1.021,0,0,0,1-1.221,24.954,24.954,0,0,1-.427-4.28V465.242a85.04,85.04,0,0,1,31.47,21.1,1.021,1.021,0,0,0,1.589-.094l6.363-8.96a1.022,1.022,0,0,0-.291-1.456Z" fill="#fff"/>
        <path id="パス_38" data-name="パス 38" d="M439.049,452.538h5.018a.747.747,0,0,0,.734-1.02l-3.37-12.008a1.448,1.448,0,0,0-1.306-1.02h-5.018a.747.747,0,0,0-.734,1.02l3.37,12.008A1.45,1.45,0,0,0,439.049,452.538Z" fill="#fff"/>
        <path id="パス_39" data-name="パス 39" d="M443.879,475.836l-2.116-1.322a105.5,105.5,0,0,0-37.016-15.406V440.137a26.045,26.045,0,0,1,.43-4.293,1.02,1.02,0,0,0-1-1.208H393.69a1.019,1.019,0,0,0-1,1.22,18.528,18.528,0,0,1,.428,4.281v63.538a18.029,18.029,0,0,1-.426,4.27,1.021,1.021,0,0,0,1,1.231h10.485a1.022,1.022,0,0,0,1-1.221,24.959,24.959,0,0,1-.428-4.28V465.242a85.031,85.031,0,0,1,31.47,21.1.99.99,0,0,0,.817.334,1.018,1.018,0,0,0,.771-.428l6.363-8.96a1.016,1.016,0,0,0,.169-.791A1.027,1.027,0,0,0,443.879,475.836Z" fill="#fff"/>
        <path id="パス_40" data-name="パス 40" d="M427.386,452.538H432.4a.746.746,0,0,0,.733-1.02l-3.369-12.008a1.451,1.451,0,0,0-1.307-1.02h-5.018a.747.747,0,0,0-.734,1.02l3.37,12.008A1.451,1.451,0,0,0,427.386,452.538Z" fill="#fff"/>
        <path id="パス_41" data-name="パス 41" d="M530.541,447.183h-36.2a62.182,62.182,0,0,0,2.3-5.9,40.731,40.731,0,0,1,1.474-3.823,1.02,1.02,0,0,0-.649-1.442l-10.754-2.867a1.017,1.017,0,0,0-1.279.9c-.524,6.635-5.624,19.483-10.118,25.474-4.768,6.635-11.936,12.758-14.462,13.117a1.019,1.019,0,0,0-.7,1.587l2.152,3.137a1.022,1.022,0,0,0,.784.443,1.009,1.009,0,0,0,.831-.356,11.687,11.687,0,0,1,2.837-1.913c12.77-6.739,19.077-12.527,24.685-22.734h25.988c-2.611,16.39-9.757,29.65-21.254,39.431-7.656,6.6-18.328,11.772-24.825,12.032a1.017,1.017,0,0,0-.906,1.4l1.432,3.584a1.016,1.016,0,0,0,.55.561,1,1,0,0,0,.4.081,1.034,1.034,0,0,0,.389-.077,26.278,26.278,0,0,1,3.984-1.3c31.511-7.9,48.106-25.509,53.807-57.089v0l.538-3.046a1.019,1.019,0,0,0-1-1.2Z" fill="#fff"/>
        <path id="パス_42" data-name="パス 42" d="M618.576,445.3H582.8c.624-1.4,1.178-2.8,1.716-4.346a12.933,12.933,0,0,1,1.661-3.836,1.02,1.02,0,0,0-.566-1.546L575.4,432.615a1.02,1.02,0,0,0-1.3.865c-.608,5.389-5.053,16.836-8.824,22.71-4.193,6.991-14.186,16.245-17.541,17.006a1.019,1.019,0,0,0-.608,1.582l2.15,3.048a1.02,1.02,0,0,0,.833.433h.014a1.022,1.022,0,0,0,.834-.454.929.929,0,0,1,.184-.183c.063-.054.129-.111.2-.178.231-.128.59-.343,1.064-.631.458-.276,1.032-.624,1.735-1.037,7.57-4.679,10.732-6.789,14.071-9.786a93.153,93.153,0,0,1,20.708,20.4c-8.974,9.177-23.661,17.093-32.488,17.433a1.021,1.021,0,0,0-.919,1.369l1.345,3.674a1.015,1.015,0,0,0,.57.591,1,1,0,0,0,.388.078,1.04,1.04,0,0,0,.433-.1,18.943,18.943,0,0,1,4.54-1.362c34.184-7.658,51.7-26.659,56.8-61.61a1.022,1.022,0,0,0-1.01-1.167Zm-12.246,5.626c-1.92,10.067-5.64,19.771-10.337,26.984A108.319,108.319,0,0,0,572.8,461.53a60.423,60.423,0,0,0,7.309-10.6Z" fill="#fff"/>
        <path id="パス_43" data-name="パス 43" d="M702.669,469.89a1.017,1.017,0,0,0-.873-.186,19.266,19.266,0,0,1-3.877.416H635.456a15.325,15.325,0,0,1-3.677-.382,1.02,1.02,0,0,0-1.377.956v6.271a1.02,1.02,0,0,0,1.423.938,10.622,10.622,0,0,1,3.631-.364h62.463a22.093,22.093,0,0,1,3.923.426,1.019,1.019,0,0,0,.847-.211,1.023,1.023,0,0,0,.372-.789v-6.271A1.017,1.017,0,0,0,702.669,469.89Z" fill="#fff"/>
      </g>
      <g id="グループ_12" data-name="グループ 12">
        <path id="パス_44" data-name="パス 44" d="M289.088,530.8H287.76a.306.306,0,0,0-.306.307v13.959l-11.3-14.15a.307.307,0,0,0-.239-.116H272.1a.307.307,0,0,0-.306.307v20.755a.307.307,0,0,0,.306.307h1.3a.307.307,0,0,0,.306-.307V534.532l13.928,17.523a.309.309,0,0,0,.239.116h1.218a.306.306,0,0,0,.3-.307V531.109A.306.306,0,0,0,289.088,530.8Z" fill="#fff"/>
        <path id="長方形_2" data-name="長方形 2" d="M.307,0H4.042a.306.306,0,0,1,.306.306V21.061a.307.307,0,0,1-.307.307H.306A.306.306,0,0,1,0,21.062V.307A.307.307,0,0,1,.307,0Z" transform="translate(299.431 530.802)" fill="#fff"/>
        <path id="パス_45" data-name="パス 45" d="M332.582,542.148h-6.67a.306.306,0,0,0-.306.307v1.107a.306.306,0,0,0,.306.307h2.849v5.809a7.911,7.911,0,0,1-3.761.911,6.7,6.7,0,0,1-4.233-1.644,9.145,9.145,0,0,1-3.182-7.209c0-5.353,3-9.545,6.833-9.545a6.93,6.93,0,0,1,5.706,3.116.307.307,0,0,0,.216.119.36.36,0,0,0,.234-.079l1.937-1.771a.306.306,0,0,0-.012-.463c-2.2-1.807-4.772-2.613-8.33-2.613-6.688,0-11.181,4.584-11.181,11.4,0,6.638,4.139,10.6,11.07,10.6a13.71,13.71,0,0,0,8.709-2.858.307.307,0,0,0,.121-.244v-6.946A.306.306,0,0,0,332.582,542.148Z" fill="#fff"/>
        <path id="パス_46" data-name="パス 46" d="M360.3,530.8h-3.569a.307.307,0,0,0-.306.307v9.075H345.945v-9.075a.307.307,0,0,0-.306-.307H342.07a.306.306,0,0,0-.306.307v20.755a.306.306,0,0,0,.306.307h3.569a.307.307,0,0,0,.306-.307v-9.959H356.43v9.959a.307.307,0,0,0,.306.307H360.3a.306.306,0,0,0,.306-.307V531.109A.306.306,0,0,0,360.3,530.8Z" fill="#fff"/>
        <path id="パス_47" data-name="パス 47" d="M387.7,530.8h-19.2a.307.307,0,0,0-.306.307v1.108a.307.307,0,0,0,.306.307h7.47v19.34a.306.306,0,0,0,.306.307h3.68a.306.306,0,0,0,.306-.307v-19.34H387.7a.307.307,0,0,0,.306-.307v-1.108A.307.307,0,0,0,387.7,530.8Z" fill="#fff"/>
        <path id="パス_48" data-name="パス 48" d="M423.925,531.908a16.811,16.811,0,0,0-5.657-1.106h-8.384a.307.307,0,0,0-.306.307v20.755a.307.307,0,0,0,.306.307h8.495c7.493,0,11.292-3.558,11.292-10.573C429.671,537.108,427.578,533.578,423.925,531.908Zm-10.138.616h4.26a7.3,7.3,0,0,1,4.664,1.633c1.559,1.429,2.53,4.289,2.53,7.469,0,3.435-1.086,6.23-2.983,7.672a6.783,6.783,0,0,1-4.073,1.153h-4.4Z" fill="#fff"/>
        <path id="パス_49" data-name="パス 49" d="M448.869,530.5c-6.787,0-11.348,4.382-11.348,10.905,0,6.949,4.243,11.1,11.348,11.1,7.036,0,11.238-4.129,11.238-11.044C460.107,534.8,455.7,530.5,448.869,530.5Zm-.028,1.775c3.911,0,6.64,3.753,6.64,9.13,0,5.733-2.544,9.295-6.64,9.295-4.068,0-6.7-3.627-6.7-9.241C442.145,536.138,444.962,532.275,448.841,532.275Z" fill="#fff"/>
        <path id="パス_50" data-name="パス 50" d="M479.3,532.191a7.091,7.091,0,0,1,5.584,3.184.307.307,0,0,0,.229.135.333.333,0,0,0,.249-.1l1.827-1.936a.309.309,0,0,0,.081-.231.3.3,0,0,0-.115-.219,11.328,11.328,0,0,0-7.688-2.528c-6.746,0-11.459,4.7-11.459,11.431,0,6.62,4.221,10.572,11.292,10.572a11.919,11.919,0,0,0,7.855-2.779.305.305,0,0,0,.064-.41l-.692-1.024a.307.307,0,0,0-.207-.132.3.3,0,0,0-.237.064,9.968,9.968,0,0,1-6.23,2.367c-4.012,0-7.275-3.985-7.275-8.881C472.582,536.281,475.471,532.191,479.3,532.191Z" fill="#fff"/>
        <path id="パス_51" data-name="パス 51" d="M513.643,530.8H494.438a.308.308,0,0,0-.307.307v1.108a.308.308,0,0,0,.307.307h7.469v19.34a.307.307,0,0,0,.307.307h3.679a.307.307,0,0,0,.307-.307v-19.34h7.443a.308.308,0,0,0,.307-.307v-1.108A.308.308,0,0,0,513.643,530.8Z" fill="#fff"/>
        <path id="パス_52" data-name="パス 52" d="M531.764,530.5c-6.787,0-11.35,4.382-11.35,10.905,0,6.949,4.244,11.1,11.35,11.1,7.034,0,11.236-4.129,11.236-11.044C543,534.8,538.589,530.5,531.764,530.5Zm-.028,1.775c3.909,0,6.638,3.753,6.638,9.13,0,5.733-2.544,9.295-6.638,9.295-4.068,0-6.7-3.627-6.7-9.241C525.04,536.138,527.855,532.275,531.736,532.275Z" fill="#fff"/>
        <path id="パス_53" data-name="パス 53" d="M569.841,551.7l-6.577-9.945c.291-.038.6-.092.807-.132a5.219,5.219,0,0,0,4.3-5.2,5.022,5.022,0,0,0-2.737-4.669,10.4,10.4,0,0,0-5.233-.951h-8.469a.307.307,0,0,0-.307.307v20.755a.307.307,0,0,0,.307.307h3.57a.308.308,0,0,0,.307-.307v-9.987h2.761l6.415,10.15a.3.3,0,0,0,.259.144h4.343a.3.3,0,0,0,.269-.162A.31.31,0,0,0,569.841,551.7Zm-14.033-19.171h2.876a8.656,8.656,0,0,1,3.046.366,3.817,3.817,0,0,1-.639,7.134,11.443,11.443,0,0,1-2.3.132h-2.986Z" fill="#fff"/>
      </g>
    </g>
    <g id="グループ_22" data-name="グループ 22">
      <g id="グループ_19" data-name="グループ 19">
        <g id="グループ_18" data-name="グループ 18">
          <g id="パス_54" data-name="パス 54" fill="#386cb0" stroke-linecap="round" stroke-linejoin="round">
            <path d="M 509.5087585449219 385.3056945800781 C 506.453125 385.3056945800781 503.5440368652344 383.9503173828125 501.5690612792969 381.6822509765625 C 500.0633850097656 382.7985534667969 498.2807922363281 383.4969177246094 496.4093322753906 383.6854553222656 C 496.0602416992188 383.7207641601562 495.7053527832031 383.7387390136719 495.3551940917969 383.7387390136719 C 492.7787170410156 383.7387390136719 490.2946472167969 382.7825317382812 488.3605041503906 381.0462951660156 C 486.4122009277344 379.2973327636719 485.1947937011719 376.9071655273438 484.9326171875 374.3160095214844 L 484.9267272949219 374.2577514648438 L 484.9253845214844 374.1993103027344 L 484.3446655273438 348.8040771484375 C 477.6123962402344 349.3198852539062 471.00341796875 349.5811767578125 464.6771240234375 349.5811767578125 C 437.113037109375 349.5811767578125 413.3502807617188 344.6925048828125 394.0488891601562 335.0508728027344 C 385.3033142089844 330.6821899414062 377.4420776367188 325.30517578125 370.6835632324219 319.0692138671875 C 364.3492736816406 313.2246398925781 358.9124145507812 306.563232421875 354.5239868164062 299.2699890136719 C 346.1141662597656 285.2934875488281 341.544921875 268.9821472167969 341.3102416992188 252.0993041992188 C 341.2016906738281 244.2920684814453 342.0202331542969 236.5556945800781 343.7431945800781 229.1050720214844 C 345.3827209472656 222.0149383544922 347.7948303222656 215.3758087158203 350.9161987304688 209.3597717285156 C 344.4912414550781 191.1231842041016 342.5884399414062 174.7210540771484 345.2619323730469 160.6023101806641 C 346.5028991699219 154.0487976074219 348.747314453125 147.9522247314453 351.9328002929688 142.4818878173828 C 354.6339416503906 137.8433380126953 358.0409851074219 133.6026458740234 362.0750427246094 129.8545684814453 C 358.5352172851562 126.8790512084961 356.8126831054688 122.7391967773438 357.073974609375 117.772346496582 C 357.291259765625 113.6406860351562 358.816650390625 110.4051513671875 358.8815002441406 110.269416809082 L 359.5620422363281 108.8448028564453 L 360.949951171875 109.5973434448242 L 378.2587890625 118.9821701049805 C 381.8190002441406 117.2763977050781 385.6057434082031 115.8092956542969 389.5375061035156 114.612548828125 C 390.3546142578125 111.7347259521484 391.59814453125 109.0058212280273 393.2400817871094 106.4897689819336 C 395.0096435546875 103.778076171875 397.194580078125 101.3846130371094 399.7341918945312 99.37580871582031 C 402.3006591796875 97.34572601318359 405.15869140625 95.76511383056641 408.2289123535156 94.67787933349609 C 411.4066467285156 93.55257415771484 414.7432250976562 92.98199462890625 418.14599609375 92.98199462890625 C 421.5485534667969 92.98199462890625 424.885009765625 93.55257415771484 428.0626525878906 94.67787933349609 C 431.1328430175781 95.76511383056641 433.9908752441406 97.34572601318359 436.5573120117188 99.37580871582031 C 439.0969543457031 101.384651184082 441.2818908691406 103.7781524658203 443.0513916015625 106.4898071289062 C 444.6932983398438 109.0058898925781 445.9366760253906 111.734748840332 446.7535705566406 114.6125717163086 C 450.6853637695312 115.8093185424805 454.4720153808594 117.2763977050781 458.0322265625 118.9821701049805 L 475.3410339355469 109.5973434448242 L 476.7289733886719 108.8448028564453 L 477.4095153808594 110.269416809082 C 477.4743347167969 110.4051513671875 478.9997253417969 113.6406860351562 479.217041015625 117.772346496582 C 479.4783020019531 122.7391967773438 477.7558288574219 126.8790054321289 474.2160034179688 129.8545227050781 C 478.1509094238281 133.5101776123047 481.4903259277344 137.6349334716797 484.158203125 142.1377716064453 C 487.30908203125 147.4559631347656 489.5648498535156 153.3750762939453 490.8628234863281 159.7306060791016 C 493.6575012207031 173.4154510498047 492.0939331054688 189.2926483154297 486.216064453125 206.9286499023438 C 486.8990783691406 208.51220703125 487.5211486816406 210.0151672363281 488.09765625 211.4751586914062 C 512.6200561523438 196.7190399169922 543.2560424804688 178.3443908691406 553.493896484375 172.4633483886719 C 556.6384887695312 170.6568756103516 559.5701904296875 169.7409210205078 562.2075805664062 169.7409210205078 C 564.3538208007812 169.7409210205078 566.22216796875 170.3392333984375 567.7607421875 171.5192718505859 C 569.2003173828125 172.6234130859375 570.2857055664062 174.2256164550781 570.8994140625 176.1526184082031 C 571.4525756835938 177.8895721435547 571.62548828125 179.8365783691406 571.4133911132812 181.9396057128906 C 571.1994018554688 184.0615692138672 570.6015625 186.2409515380859 569.636474609375 188.4172668457031 C 567.9747314453125 192.1648101806641 565.3331909179688 195.6600036621094 561.9052734375 198.6759796142578 C 563.598876953125 199.0287933349609 565.0877685546875 199.6689758300781 566.3541259765625 200.5914611816406 C 568.2963256835938 202.0061492919922 569.61865234375 204.0504150390625 570.17822265625 206.5032653808594 C 570.6267700195312 208.4693450927734 570.5836181640625 210.6175384521484 570.0498657226562 212.8880767822266 C 569.5177612304688 215.1519622802734 568.5225830078125 217.4236450195312 567.0919799804688 219.6399993896484 C 564.4292602539062 223.7653656005859 560.488037109375 227.3634948730469 555.5953369140625 230.1589660644531 C 557.1351928710938 231.1584167480469 558.3624877929688 232.4231567382812 559.2119750976562 233.9007720947266 C 560.456787109375 236.0658874511719 560.8693237304688 238.6220703125 560.4050903320312 241.2930755615234 C 560.0382080078125 243.4035797119141 559.1553344726562 245.4803466796875 557.781005859375 247.4656829833984 C 556.3759765625 249.4953460693359 554.5307006835938 251.3170776367188 552.2963256835938 252.8803100585938 C 547.99462890625 255.8899078369141 542.5701904296875 257.7160339355469 536.4756469726562 258.2258911132812 C 538.3667602539062 261.4879455566406 538.696044921875 265.5956420898438 537.2031860351562 269.1998901367188 C 536.0980224609375 271.8681945800781 534.0648193359375 274.0968322753906 531.3233642578125 275.6449279785156 C 528.2727661132812 277.3675537109375 524.4194946289062 278.2410888671875 519.8709716796875 278.2410888671875 C 519.8707275390625 278.2410888671875 519.8706665039062 278.2410888671875 519.870361328125 278.2410888671875 C 513.8055419921875 278.2410278320312 506.6119384765625 276.6839294433594 498.4626770019531 273.60986328125 C 498.3738403320312 279.7792663574219 498.0775756835938 285.5221862792969 497.7900695800781 291.0954284667969 C 497.3360900878906 299.8966369628906 496.9439697265625 307.4976501464844 497.5394592285156 314.0233764648438 C 498.1741027832031 320.97802734375 499.9022827148438 325.9069519042969 502.9781494140625 329.5350036621094 C 511.30615234375 339.3589477539062 528.1865234375 358.5036010742188 528.3560180664062 358.6958312988281 L 528.39794921875 358.7433471679688 L 528.4356689453125 358.794189453125 C 530.0972900390625 361.0336608886719 530.7859497070312 363.7953186035156 530.3749389648438 366.5704345703125 C 529.9638671875 369.3455810546875 528.5042114257812 371.7890014648438 526.2647705078125 373.4506225585938 C 524.4619140625 374.7880249023438 522.3145751953125 375.4949340820312 520.0548706054688 375.4949340820312 C 520.0100708007812 375.4949340820312 519.9651489257812 375.49462890625 519.9202880859375 375.4940490722656 C 519.662353515625 379.46484375 517.1510620117188 383.0413818359375 513.383056640625 384.554931640625 C 512.14306640625 385.0530700683594 510.8395385742188 385.3056945800781 509.5087585449219 385.3056945800781 Z" stroke="none"/>
            <path d="M 418.14599609375 94.48199462890625 C 404.9320068359375 94.48199462890625 393.8689880371094 103.5599975585938 390.76904296875 115.8099975585938 C 386.4110107421875 117.0889892578125 382.2039794921875 118.7080078125 378.2210083007812 120.6679992675781 L 360.2349853515625 110.9159851074219 C 360.2349853515625 110.9159851074219 354.3989868164062 123.1329956054688 364.43798828125 129.7460021972656 C 346.865966796875 145.0579833984375 338.7669677734375 170.8849487304688 352.5490112304688 209.4759826660156 C 327.622314453125 256.498046875 345.5513305664062 348.0811462402344 464.6770324707031 348.0811462402344 C 471.3979797363281 348.0811462402344 478.4322814941406 347.7901611328125 485.8080139160156 347.1829833984375 L 486.4249877929688 374.1650085449219 C 486.9219970703125 379.0769653320312 491.3466796875 382.6898803710938 496.2590026855469 382.1929931640625 C 498.4530029296875 381.9719848632812 500.385009765625 380.9620056152344 501.8099975585938 379.47900390625 C 504.0450134277344 383.1629943847656 508.7020874023438 384.8190307617188 512.823974609375 383.1629943847656 C 516.6329956054688 381.6329956054688 518.81591796875 377.7429809570312 518.3889770507812 373.8419799804688 C 520.7579345703125 374.2799987792969 523.294921875 373.7860107421875 525.3709716796875 372.2460021972656 C 529.3359985351562 369.3040161132812 530.1729736328125 363.6530151367188 527.23095703125 359.68798828125 C 527.23095703125 359.68798828125 510.2680053710938 340.4539794921875 501.8340148925781 330.5050048828125 C 492.2080078125 319.1510009765625 496.822998046875 298.4559936523438 496.9850158691406 271.4259948730469 C 535.18603515625 286.7140502929688 541.6669921875 264.9750061035156 533.5589599609375 256.8679809570312 C 558.0020141601562 256.4920043945312 566.2739868164062 235.4339904785156 552.3170166015625 230.1869964599609 C 572.4148559570312 220.5133666992188 574.1287841796875 199.8540954589844 558.577392578125 199.8522644042969 C 558.3822631835938 199.8522338867188 558.1865234375 199.85546875 557.9859619140625 199.8619995117188 C 576.8360595703125 186.4999694824219 571.9148559570312 163.6110534667969 554.2410278320312 173.7640075683594 C 543.6829833984375 179.8290100097656 511.1100158691406 199.3760070800781 487.3429870605469 213.6799926757812 C 486.5050048828125 211.4719848632812 485.5870056152344 209.2409973144531 484.6109924316406 206.9969482421875 C 497.1799926757812 169.77294921875 489.0469970703125 144.7279968261719 471.8529968261719 129.7460021972656 C 481.8919982910156 123.1329956054688 476.0559997558594 110.9159851074219 476.0559997558594 110.9159851074219 L 458.0700073242188 120.6679992675781 C 454.0870056152344 118.7080078125 449.8800048828125 117.0889892578125 445.5220031738281 115.8099975585938 C 442.4230041503906 103.5599975585938 431.3590087890625 94.48199462890625 418.14599609375 94.48199462890625 M 418.14599609375 91.48199462890625 C 421.7195739746094 91.48199462890625 425.2244873046875 92.08154296875 428.5633850097656 93.263916015625 C 431.7892761230469 94.40631103515625 434.7919006347656 96.06680297851562 437.4878845214844 98.1993408203125 C 440.1548767089844 100.3089294433594 442.4493408203125 102.8224182128906 444.3075866699219 105.6700439453125 C 445.8821105957031 108.0828857421875 447.1076965332031 110.681884765625 447.962158203125 113.41650390625 C 451.43701171875 114.5101623535156 454.7967834472656 115.8121948242188 457.9859313964844 117.301025390625 L 474.6260681152344 108.2787170410156 C 475.3489379882812 107.8867797851562 476.2010803222656 107.8087768554688 476.9830322265625 108.0628356933594 C 477.7650756835938 108.3169250488281 478.4085693359375 108.8808898925781 478.7630004882812 109.6228942871094 C 478.8330688476562 109.7696228027344 480.4821472167969 113.2670288085938 480.7149963378906 117.6935424804688 C 480.8572692871094 120.3989562988281 480.4532775878906 122.9136657714844 479.5141906738281 125.1676940917969 C 478.7850646972656 126.9177551269531 477.7439270019531 128.4898986816406 476.4033203125 129.8692321777344 C 479.94091796875 133.3406982421875 482.9750061035156 137.1980895996094 485.4486999511719 141.3731994628906 C 488.6849670410156 146.83544921875 491.0010070800781 152.9107971191406 492.3324584960938 159.4304504394531 C 495.1517639160156 173.2355346679688 493.63330078125 189.1864929199219 487.8189697265625 206.8597717285156 C 488.1724853515625 207.6864318847656 488.5096435546875 208.4920654296875 488.8327941894531 209.2822875976562 C 513.09521484375 194.68505859375 542.707763671875 176.929443359375 552.7467041015625 171.1626586914062 C 556.12158203125 169.2239685058594 559.3046875 168.2409057617188 562.2075805664062 168.2409057617188 C 567.05810546875 168.2409057617188 570.8416748046875 171.0284118652344 572.32861328125 175.6974487304688 C 572.9444580078125 177.6310119628906 573.138671875 179.7817993164062 572.9058227539062 182.0901489257812 C 572.6758422851562 184.3703308105469 572.0372314453125 186.7036437988281 571.0076904296875 189.0252990722656 C 569.5804443359375 192.243896484375 567.4730834960938 195.2804870605469 564.7960205078125 198.0050659179688 C 565.6732177734375 198.3751525878906 566.48779296875 198.8336486816406 567.2377319335938 199.3800048828125 C 569.47705078125 201.0114440917969 570.9996337890625 203.3598022460938 571.6408081054688 206.1712036132812 C 572.1405029296875 208.3619995117188 572.096435546875 210.73779296875 571.5098876953125 213.2326049804688 C 570.9383544921875 215.663818359375 569.8758544921875 218.0935363769531 568.3519287109375 220.4542541503906 C 565.913330078125 224.2319793701172 562.46435546875 227.581787109375 558.233154296875 230.3111419677734 C 559.1439208984375 231.1525573730469 559.90966796875 232.1047668457031 560.5123901367188 233.1531066894531 C 561.93408203125 235.6258087158203 562.407958984375 238.5294189453125 561.8828735351562 241.5499572753906 C 561.478515625 243.8763427734375 560.513427734375 246.1539154052734 559.0142822265625 248.3194580078125 C 557.5076904296875 250.495849609375 555.5368041992188 252.44384765625 553.15625 254.1093444824219 C 549.1469116210938 256.9143676757812 544.226806640625 258.7396850585938 538.7274169921875 259.4876098632812 C 539.9581909179688 262.7382202148438 539.9664306640625 266.4480895996094 538.5890502929688 269.7737426757812 C 537.3544311523438 272.754638671875 535.0970458984375 275.2365112304688 532.0609741210938 276.9509582519531 C 528.7823486328125 278.8023376464844 524.680908203125 279.7410888671875 519.870361328125 279.7410888671875 C 514.1279296875 279.7410888671875 507.4333801269531 278.3971862792969 499.9241027832031 275.7410278320312 C 499.8054809570312 281.142333984375 499.5433349609375 286.224609375 499.2880859375 291.1726684570312 C 498.8370361328125 299.9165344238281 498.447509765625 307.468017578125 499.0332336425781 313.8870239257812 C 499.6384887695312 320.5195922851562 501.2555847167969 325.1836547851562 504.122314453125 328.56494140625 C 512.441162109375 338.378173828125 529.3115234375 357.5115356445312 529.48095703125 357.7036437988281 C 529.5368041992188 357.7669677734375 529.5899658203125 357.8326110839844 529.6402587890625 357.900390625 C 531.5405883789062 360.4615783691406 532.3284912109375 363.6186828613281 531.8587646484375 366.7901611328125 C 531.3890380859375 369.961669921875 529.7197265625 372.7548828125 527.1585693359375 374.6552124023438 C 525.4156494140625 375.9481506347656 523.3922119140625 376.7261962890625 521.2485961914062 376.9367065429688 C 520.9974365234375 378.3299560546875 520.5029907226562 379.6812744140625 519.7827758789062 380.9093017578125 C 518.431884765625 383.2127075195312 516.4122314453125 384.9546508789062 513.942138671875 385.9468078613281 C 512.5237426757812 386.5166931152344 511.0320434570312 386.8056945800781 509.5087585449219 386.8056945800781 C 507.4709167480469 386.8056945800781 505.4472961425781 386.2782592773438 503.6567077636719 385.2803955078125 C 502.8242492675781 384.8164672851562 502.052490234375 384.2563171386719 501.357666015625 383.6155090332031 C 499.89453125 384.4684143066406 498.2594299316406 385.0066833496094 496.5596618652344 385.1778869628906 C 496.1610717773438 385.2182312011719 495.75537109375 385.2387390136719 495.3551940917969 385.2387390136719 C 492.4082641601562 385.2387390136719 489.568359375 384.1462707519531 487.3584899902344 382.1625671386719 C 485.1316223144531 380.16357421875 483.7401123046875 377.4305725097656 483.4402465820312 374.4669799804688 C 483.432373046875 374.389404296875 483.4275817871094 374.3115234375 483.42578125 374.2335815429688 L 482.8811340332031 350.4160766601562 C 476.6557312011719 350.8577270507812 470.54638671875 351.0811462402344 464.6770324707031 351.0811462402344 C 436.8782348632812 351.0811462402344 412.8899230957031 346.1392822265625 393.3785400390625 336.3927612304688 C 384.506591796875 331.9609375 376.5286865234375 326.50341796875 369.6663818359375 320.171630859375 C 363.2275390625 314.2305908203125 357.700439453125 307.45849609375 353.2387084960938 300.0433959960938 C 344.6921997070312 285.8397216796875 340.0487060546875 269.2681579589844 339.8103637695312 252.1201477050781 C 339.7001342773438 244.1923370361328 340.5316772460938 236.3352355957031 342.28173828125 228.7671203613281 C 343.8972778320312 221.7809753417969 346.2523193359375 215.2208862304688 349.2877197265625 209.2474365234375 C 342.94482421875 191.0005798339844 341.0946655273438 174.5473327636719 343.7880859375 160.3231811523438 C 345.0608520507812 153.6017761230469 347.364990234375 147.3451232910156 350.6365966796875 141.72705078125 C 353.1478881835938 137.4144897460938 356.2514038085938 133.4380493164062 359.8877563476562 129.8693237304688 C 358.5471801757812 128.489990234375 357.5059204101562 126.9177551269531 356.7767944335938 125.1676940917969 C 355.8377075195312 122.9136657714844 355.4337158203125 120.3989868164062 355.5759887695312 117.6935424804688 C 355.808837890625 113.2670288085938 357.4578857421875 109.7696228027344 357.5279541015625 109.6228942871094 C 357.8823852539062 108.8809204101562 358.5258178710938 108.3169250488281 359.3079223632812 108.0628356933594 C 360.0899047851562 107.8087463378906 360.9420166015625 107.8867492675781 361.6648559570312 108.2786865234375 L 378.3051147460938 117.3009948730469 C 381.4942016601562 115.8121643066406 384.8541259765625 114.5101318359375 388.3290405273438 113.4164428710938 C 389.1836547851562 110.681884765625 390.4093627929688 108.082763671875 391.98388671875 105.6699829101562 C 393.8422241210938 102.8223876953125 396.1366882324219 100.3088684082031 398.8036193847656 98.1993408203125 C 401.4996032714844 96.06680297851562 404.5022583007812 94.40631103515625 407.7281799316406 93.263916015625 C 411.0671691894531 92.08154296875 414.5722045898438 91.48199462890625 418.14599609375 91.48199462890625 Z" stroke="none" fill="#fff"/>
          </g>
          <g id="パス_55" data-name="パス 55" fill="#ffcc01" stroke-linecap="round" stroke-linejoin="round">
            <path d="M 509.0020141601562 130.3130035400391 C 501.32373046875 130.3130035400391 495.0769958496094 124.0662689208984 495.0769958496094 116.3880004882812 L 495.0769958496094 107.6230010986328 C 495.0769958496094 104.700569152832 492.6994323730469 102.3230056762695 489.7770080566406 102.3230056762695 L 481.0130004882812 102.3230056762695 C 473.3341979980469 102.3230056762695 467.0870056152344 96.07672119140625 467.0870056152344 88.39900207519531 C 467.0870056152344 80.72073364257812 473.3341979980469 74.4739990234375 481.0130004882812 74.4739990234375 L 489.7770080566406 74.4739990234375 C 492.6994323730469 74.4739990234375 495.0769958496094 72.096435546875 495.0769958496094 69.17400360107422 L 495.0769958496094 60.41000366210938 C 495.0769958496094 52.73173141479492 501.32373046875 46.48500061035156 509.0020141601562 46.48500061035156 C 516.6797485351562 46.48500061035156 522.926025390625 52.73173141479492 522.926025390625 60.41000366210938 L 522.926025390625 69.17400360107422 C 522.926025390625 72.096435546875 525.3035888671875 74.4739990234375 528.2260131835938 74.4739990234375 L 536.989990234375 74.4739990234375 C 544.6682739257812 74.4739990234375 550.9149780273438 80.72073364257812 550.9149780273438 88.39900207519531 C 550.9149780273438 96.07672119140625 544.6682739257812 102.3230056762695 536.989990234375 102.3230056762695 L 528.2260131835938 102.3230056762695 C 525.3035888671875 102.3230056762695 522.926025390625 104.700569152832 522.926025390625 107.6230010986328 L 522.926025390625 116.3880004882812 C 522.926025390625 124.0662689208984 516.6797485351562 130.3130035400391 509.0020141601562 130.3130035400391 Z" stroke="none"/>
            <path d="M 509.0020141601562 128.8130035400391 C 515.85302734375 128.8130035400391 521.426025390625 123.2389984130859 521.426025390625 116.3880004882812 L 521.426025390625 107.6230010986328 C 521.426025390625 103.8680038452148 524.4710083007812 100.8230056762695 528.2260131835938 100.8230056762695 L 536.989990234375 100.8230056762695 C 543.8419799804688 100.8230056762695 549.4149780273438 95.24900054931641 549.4149780273438 88.39900207519531 C 549.4149780273438 81.54800415039062 543.8419799804688 75.9739990234375 536.989990234375 75.9739990234375 L 528.2260131835938 75.9739990234375 C 524.4710083007812 75.9739990234375 521.426025390625 72.92900085449219 521.426025390625 69.17400360107422 L 521.426025390625 60.41000366210938 C 521.426025390625 53.55900192260742 515.85302734375 47.98500061035156 509.0020141601562 47.98500061035156 C 502.1499938964844 47.98500061035156 496.5769958496094 53.55900192260742 496.5769958496094 60.41000366210938 L 496.5769958496094 69.17400360107422 C 496.5769958496094 72.92900085449219 493.5320129394531 75.9739990234375 489.7770080566406 75.9739990234375 L 481.0130004882812 75.9739990234375 C 474.1619873046875 75.9739990234375 468.5870056152344 81.54800415039062 468.5870056152344 88.39900207519531 C 468.5870056152344 95.24900054931641 474.1619873046875 100.8230056762695 481.0130004882812 100.8230056762695 L 489.7770080566406 100.8230056762695 C 493.5320129394531 100.8230056762695 496.5769958496094 103.8680038452148 496.5769958496094 107.6230010986328 L 496.5769958496094 116.3880004882812 C 496.5769958496094 123.2389984130859 502.1499938964844 128.8130035400391 509.0020141601562 128.8130035400391 M 509.0020141601562 131.8130035400391 C 500.4966430664062 131.8130035400391 493.5769958496094 124.8933792114258 493.5769958496094 116.3880004882812 L 493.5769958496094 107.6230010986328 C 493.5769958496094 105.5276718139648 491.872314453125 103.8230056762695 489.7770080566406 103.8230056762695 L 481.0130004882812 103.8230056762695 C 472.507080078125 103.8230056762695 465.5870056152344 96.90383148193359 465.5870056152344 88.39900207519531 C 465.5870056152344 79.89363098144531 472.507080078125 72.9739990234375 481.0130004882812 72.9739990234375 L 489.7770080566406 72.9739990234375 C 491.872314453125 72.9739990234375 493.5769958496094 71.26933288574219 493.5769958496094 69.17400360107422 L 493.5769958496094 60.41000366210938 C 493.5769958496094 51.90462875366211 500.4966430664062 44.98500061035156 509.0020141601562 44.98500061035156 C 517.5068359375 44.98500061035156 524.426025390625 51.90462875366211 524.426025390625 60.41000366210938 L 524.426025390625 69.17400360107422 C 524.426025390625 71.26933288574219 526.1306762695312 72.9739990234375 528.2260131835938 72.9739990234375 L 536.989990234375 72.9739990234375 C 545.495361328125 72.9739990234375 552.4149780273438 79.89363098144531 552.4149780273438 88.39900207519531 C 552.4149780273438 96.90383148193359 545.495361328125 103.8230056762695 536.989990234375 103.8230056762695 L 528.2260131835938 103.8230056762695 C 526.1306762695312 103.8230056762695 524.426025390625 105.5276718139648 524.426025390625 107.6230010986328 L 524.426025390625 116.3880004882812 C 524.426025390625 124.8933792114258 517.5068359375 131.8130035400391 509.0020141601562 131.8130035400391 Z" stroke="none" fill="#fff"/>
          </g>
          <g id="パス_56" data-name="パス 56" fill="#ffcc01" stroke-linecap="round" stroke-linejoin="round">
            <path d="M 417.9959716796875 383.0369873046875 C 324.2472229003906 383.0369873046875 247.9770355224609 306.7667541503906 247.9770355224609 213.0179901123047 C 247.9770355224609 119.2692184448242 324.2472229003906 42.9990348815918 417.9959716796875 42.9990348815918 C 439.9679870605469 42.9990348815918 461.3683166503906 47.14071655273438 481.6024780273438 55.30903625488281 C 482.55126953125 55.69239807128906 483.3136291503906 56.41289901733398 483.7495422363281 57.33798980712891 C 484.1850891113281 58.26235198974609 484.255859375 59.30849075317383 483.9486999511719 60.28362655639648 C 483.4123840332031 61.97789764404297 481.8619995117188 63.11485290527344 480.0900268554688 63.11485290527344 C 479.7816772460938 63.11485290527344 479.4719848632812 63.07935333251953 479.1695861816406 63.00930786132812 C 468.6777038574219 60.56848907470703 457.8561096191406 59.33103561401367 447.0039978027344 59.33103561401367 C 369.06884765625 59.33103561401367 305.6639709472656 122.7367630004883 305.6639709472656 200.6729888916016 C 305.6639709472656 278.6087036132812 369.06884765625 342.0140380859375 447.0039978027344 342.0140380859375 C 496.5862121582031 342.0140380859375 543.16064453125 315.5054016113281 568.552001953125 272.8329467773438 C 569.2802734375 271.6123657226562 570.6144409179688 270.8550720214844 572.0347900390625 270.8550720214844 C 572.6517333984375 270.8550720214844 573.2713623046875 270.9998474121094 573.8265991210938 271.2737731933594 C 574.7448120117188 271.7278442382812 575.4505615234375 272.5042724609375 575.8153686523438 273.4606628417969 C 576.179931640625 274.4164123535156 576.1709594726562 275.4654541015625 575.7901000976562 276.4145812988281 C 549.7431030273438 341.1856384277344 487.8053588867188 383.0369873046875 417.9959716796875 383.0369873046875 Z" stroke="none"/>
            <path d="M 417.9959716796875 381.5369873046875 C 487.1899719238281 381.5369873046875 548.5809936523438 340.0549926757812 574.3980102539062 275.8559875488281 C 574.8939819335938 274.6199951171875 574.3560180664062 273.2090454101562 573.1630249023438 272.6189880371094 C 571.9691772460938 272.030029296875 570.5230712890625 272.4569702148438 569.8410034179688 273.5999755859375 C 544.1810302734375 316.7239990234375 497.1140441894531 343.5140380859375 447.0039978027344 343.5140380859375 C 368.2409973144531 343.5140380859375 304.1639709472656 279.4360046386719 304.1639709472656 200.6729888916016 C 304.1639709472656 121.9099884033203 368.2409973144531 57.83103561401367 447.0039978027344 57.83103561401367 C 457.9729919433594 57.83103561401367 468.9079895019531 59.08198928833008 479.5079956054688 61.54798889160156 C 480.8122253417969 61.85005187988281 482.1159973144531 61.10295867919922 482.5179748535156 59.83298873901367 C 482.9179992675781 58.56298828125 482.2760009765625 57.19898986816406 481.0409851074219 56.69998931884766 C 460.9859924316406 48.60398864746094 439.7739868164062 44.4990348815918 417.9959716796875 44.4990348815918 C 325.0750427246094 44.4990348815918 249.4770355224609 120.0959930419922 249.4770355224609 213.0179901123047 C 249.4770355224609 305.9389953613281 325.0750427246094 381.5369873046875 417.9959716796875 381.5369873046875 M 417.9959716796875 384.5369873046875 C 323.4201354980469 384.5369873046875 246.4770355224609 307.5939025878906 246.4770355224609 213.0179901123047 C 246.4770355224609 118.4421234130859 323.4201354980469 41.4990348815918 417.9959716796875 41.4990348815918 C 440.1613464355469 41.4990348815918 461.7505798339844 45.67739868164062 482.1639709472656 53.91812515258789 C 483.4643859863281 54.44353485107422 484.5090637207031 55.43090057373047 485.1064453125 56.69862747192383 C 485.7032165527344 57.96512603759766 485.8001708984375 59.39835357666016 485.37939453125 60.73421859741211 C 484.6441345214844 63.05703735351562 482.51904296875 64.61485290527344 480.0900268554688 64.61485290527344 C 479.667724609375 64.61485290527344 479.2440185546875 64.56630706787109 478.830810546875 64.4705810546875 C 468.4490661621094 62.05535507202148 457.7418823242188 60.83103561401367 447.0039978027344 60.83103561401367 C 369.8959350585938 60.83103561401367 307.1639709472656 123.563850402832 307.1639709472656 200.6729888916016 C 307.1639709472656 277.7816162109375 369.8959350585938 340.5140380859375 447.0039978027344 340.5140380859375 C 496.0601196289062 340.5140380859375 542.140625 314.2862548828125 567.2628784179688 272.0659484863281 C 568.2613525390625 270.3926391601562 570.089111328125 269.3550720214844 572.0347900390625 269.3550720214844 C 572.8807373046875 269.3550720214844 573.7298583984375 269.5534057617188 574.4903564453125 269.9285888671875 C 575.7496337890625 270.5513916015625 576.7169799804688 271.6154479980469 577.2169189453125 272.926025390625 C 577.7163696289062 274.2354431152344 577.7041015625 275.6727600097656 577.1822509765625 276.9731750488281 C 550.905029296875 342.3164978027344 488.4210205078125 384.5369873046875 417.9959716796875 384.5369873046875 Z" stroke="none" fill="#fff"/>
          </g>
          <g id="パス_57" data-name="パス 57" fill="#fff" stroke-linecap="round" stroke-linejoin="round">
            <path d="M 449.3789978027344 201.6020202636719 C 443.3700256347656 201.6020202636719 437.2620849609375 200.4841613769531 431.2248229980469 198.2794952392578 C 426.7871398925781 196.6589508056641 422.3927001953125 194.4568786621094 418.1489868164062 191.7281341552734 C 413.9053955078125 194.4568176269531 409.5108032226562 196.6588745117188 405.0726318359375 198.2794952392578 C 399.0351257324219 200.4841613769531 392.9270324707031 201.6020202636719 386.9179992675781 201.6020202636719 C 368.6180725097656 201.6020202636719 353.7300109863281 186.7139282226562 353.7300109863281 168.4140014648438 C 353.7300109863281 150.113525390625 368.6180725097656 135.2250061035156 386.9179992675781 135.2250061035156 C 389.289306640625 135.2250061035156 391.70947265625 135.4007568359375 394.1112670898438 135.7473754882812 L 394.8176574707031 135.8493194580078 L 395.1841430664062 136.4617462158203 C 397.5229797363281 140.3701019287109 400.8340148925781 143.6424407958984 404.7591857910156 145.9250640869141 C 408.8079223632812 148.2794952392578 413.43701171875 149.5240020751953 418.14599609375 149.5240020751953 C 422.8545837402344 149.5240020751953 427.4832458496094 148.2796783447266 431.5316162109375 145.9255523681641 C 435.4565124511719 143.6432037353516 438.7676086425781 140.3709869384766 441.1069641113281 136.4626312255859 L 441.4732971191406 135.8506011962891 L 442.17919921875 135.7484588623047 C 444.5796203613281 135.401123046875 447.0019836425781 135.2250061035156 449.3789978027344 135.2250061035156 C 467.6794738769531 135.2250061035156 482.5679931640625 150.113525390625 482.5679931640625 168.4140014648438 C 482.5679931640625 186.7139282226562 467.6794738769531 201.6020202636719 449.3789978027344 201.6020202636719 Z" stroke="none"/>
            <path d="M 386.9179992675781 136.7250061035156 C 369.4450073242188 136.7250061035156 355.2300109863281 150.9409790039062 355.2300109863281 168.4140014648438 C 355.2300109863281 185.8869934082031 369.4450073242188 200.1020050048828 386.9179992675781 200.1020050048828 C 399.7699890136719 200.1020050048828 410.6960144042969 194.8730010986328 418.1489868164062 189.93701171875 C 425.6019897460938 194.8730010986328 436.5270080566406 200.1020050048828 449.3789978027344 200.1020050048828 C 466.8519897460938 200.1020050048828 481.0679931640625 185.8869934082031 481.0679931640625 168.4140014648438 C 481.0679931640625 150.9409790039062 466.8519897460938 136.7250061035156 449.3789978027344 136.7250061035156 C 446.97900390625 136.7250061035156 444.6470031738281 136.9069976806641 442.3940124511719 137.2330017089844 C 437.4559936523438 145.4830017089844 428.4590148925781 151.0240020751953 418.14599609375 151.0240020751953 C 407.8320007324219 151.0240020751953 398.8340148925781 145.4819793701172 393.8970031738281 137.2319793701172 C 391.6449890136719 136.9069976806641 389.3169860839844 136.7250061035156 386.9179992675781 136.7250061035156 M 386.9179992675781 133.7250061035156 C 389.3606262207031 133.7250061035156 391.8528747558594 133.9059295654297 394.3255004882812 134.2627563476562 C 395.2193298339844 134.3917388916016 396.0075073242188 134.9165344238281 396.4712829589844 135.6914825439453 C 398.68017578125 139.3826599121094 401.8068237304688 142.4729919433594 405.5132446289062 144.6283721923828 C 409.333251953125 146.8498229980469 413.7015991210938 148.0240020751953 418.14599609375 148.0240020751953 C 422.5899963378906 148.0240020751953 426.9579162597656 146.8499908447266 430.7775573730469 144.6288604736328 C 434.4837036132812 142.4737091064453 437.6105041503906 139.3834991455078 439.8198852539062 135.6922607421875 C 440.283447265625 134.9177856445312 441.0710754394531 134.3931884765625 441.9643859863281 134.2639312744141 C 444.435791015625 133.9063262939453 446.930419921875 133.7250061035156 449.3789978027344 133.7250061035156 C 468.5065612792969 133.7250061035156 484.0679931640625 149.2864227294922 484.0679931640625 168.4140014648438 C 484.0679931640625 187.5410461425781 468.5065612792969 203.1020050048828 449.3789978027344 203.1020050048828 C 443.1939697265625 203.1020050048828 436.9129028320312 201.9535369873047 430.7103271484375 199.6884918212891 C 426.4513549804688 198.1332244873047 422.23388671875 196.0562438964844 418.1489868164062 193.5040740966797 C 414.0641784667969 196.0561828613281 409.8465576171875 198.1331329345703 405.587158203125 199.6884918212891 C 399.38427734375 201.9535369873047 393.1030578613281 203.1020050048828 386.9179992675781 203.1020050048828 C 367.7909545898438 203.1020050048828 352.2300109863281 187.5410461425781 352.2300109863281 168.4140014648438 C 352.2300109863281 149.2864227294922 367.7909545898438 133.7250061035156 386.9179992675781 133.7250061035156 Z" stroke="none" fill="#fff"/>
          </g>
          <g id="楕円形_4" data-name="楕円形 4" transform="translate(395.643 100.25)" fill="#fff" stroke="#fff" stroke-linecap="round" stroke-linejoin="round" stroke-width="3">
            <circle cx="22.503" cy="22.503" r="22.503" stroke="none"/>
            <circle cx="22.503" cy="22.503" r="24.003" fill="none"/>
          </g>
          <g id="グループ_14" data-name="グループ 14">
            <g id="パス_58" data-name="パス 58" fill="#ffcc01" stroke-linecap="round" stroke-linejoin="round">
              <path d="M 386.9169921875 185.5399932861328 C 377.47314453125 185.5399932861328 369.7900085449219 177.8573150634766 369.7900085449219 168.4140014648438 C 369.7900085449219 158.9701538085938 377.47314453125 151.2870025634766 386.9169921875 151.2870025634766 C 396.3602905273438 151.2870025634766 404.0429992675781 158.9701538085938 404.0429992675781 168.4140014648438 C 404.0429992675781 177.8573150634766 396.3602905273438 185.5399932861328 386.9169921875 185.5399932861328 Z" stroke="none"/>
              <path d="M 386.9169921875 152.7870025634766 C 378.2999877929688 152.7870025634766 371.2900085449219 159.7969970703125 371.2900085449219 168.4140014648438 C 371.2900085449219 177.031005859375 378.2999877929688 184.0399932861328 386.9169921875 184.0399932861328 C 395.5339965820312 184.0399932861328 402.5429992675781 177.031005859375 402.5429992675781 168.4140014648438 C 402.5429992675781 159.7969970703125 395.5339965820312 152.7870025634766 386.9169921875 152.7870025634766 M 386.9169921875 149.7870025634766 C 397.1874084472656 149.7870025634766 405.5429992675781 158.1430358886719 405.5429992675781 168.4140014648438 C 405.5429992675781 178.6844024658203 397.1874084472656 187.0399932861328 386.9169921875 187.0399932861328 C 376.6460266113281 187.0399932861328 368.2900085449219 178.6844024658203 368.2900085449219 168.4140014648438 C 368.2900085449219 158.1430358886719 376.6460266113281 149.7870025634766 386.9169921875 149.7870025634766 Z" stroke="none" fill="#fff"/>
            </g>
            <g id="パス_59" data-name="パス 59" fill="#ffcc01" stroke-linecap="round" stroke-linejoin="round">
              <path d="M 449.3739929199219 185.5399932861328 C 439.9312438964844 185.5399932861328 432.2489929199219 177.8573150634766 432.2489929199219 168.4140014648438 C 432.2489929199219 158.9701538085938 439.9312438964844 151.2870025634766 449.3739929199219 151.2870025634766 C 458.8189697265625 151.2870025634766 466.5029907226562 158.9701538085938 466.5029907226562 168.4140014648438 C 466.5029907226562 177.8573150634766 458.8189697265625 185.5399932861328 449.3739929199219 185.5399932861328 Z" stroke="none"/>
              <path d="M 449.3739929199219 152.7870025634766 C 440.7579956054688 152.7870025634766 433.7489929199219 159.7969970703125 433.7489929199219 168.4140014648438 C 433.7489929199219 177.031005859375 440.7579956054688 184.0399932861328 449.3739929199219 184.0399932861328 C 457.9920043945312 184.0399932861328 465.0029907226562 177.031005859375 465.0029907226562 168.4140014648438 C 465.0029907226562 159.7969970703125 457.9920043945312 152.7870025634766 449.3739929199219 152.7870025634766 M 449.3739929199219 149.7870025634766 C 459.6460571289062 149.7870025634766 468.0029907226562 158.1430358886719 468.0029907226562 168.4140014648438 C 468.0029907226562 178.6844024658203 459.6460571289062 187.0399932861328 449.3739929199219 187.0399932861328 C 439.1041259765625 187.0399932861328 430.7489929199219 178.6844024658203 430.7489929199219 168.4140014648438 C 430.7489929199219 158.1430358886719 439.1041259765625 149.7870025634766 449.3739929199219 149.7870025634766 Z" stroke="none" fill="#fff"/>
            </g>
            <g id="パス_60" data-name="パス 60" fill="#ffcc01" stroke-linecap="round" stroke-linejoin="round">
              <path d="M 418.14599609375 199.0790710449219 L 417.0910034179688 198.0353088378906 C 417.00634765625 197.9515228271484 414.9940185546875 195.9432525634766 412.9864196777344 192.4491577148438 C 411.8107604980469 190.4030609130859 410.8734741210938 188.25927734375 410.2005615234375 186.0773773193359 C 409.3561706542969 183.3394165039062 408.9280090332031 180.5343170166016 408.9280090332031 177.7400054931641 C 408.9280090332031 174.1646118164062 410.4603576660156 171.0689239501953 413.359375 168.78759765625 C 415.490478515625 167.1105804443359 417.6303100585938 166.4653167724609 417.7203369140625 166.4386596679688 L 418.14599609375 166.3126983642578 L 418.5716552734375 166.4386596679688 C 418.6616821289062 166.4653167724609 420.801513671875 167.1105804443359 422.9326171875 168.78759765625 C 425.8316650390625 171.0689086914062 427.364013671875 174.1646118164062 427.364013671875 177.7400054931641 C 427.364013671875 180.5343170166016 426.9358520507812 183.3394165039062 426.0914611816406 186.077392578125 C 425.4185485839844 188.25927734375 424.4812316894531 190.4030609130859 423.3056030273438 192.4491577148438 C 421.2979736328125 195.9432525634766 419.28564453125 197.9515228271484 419.2009887695312 198.0353088378906 L 418.14599609375 199.0790710449219 Z" stroke="none"/>
              <path d="M 418.14599609375 167.8769989013672 C 418.14599609375 167.8769989013672 410.4280090332031 170.1609954833984 410.4280090332031 177.7400054931641 C 410.4280090332031 189.3329925537109 418.14599609375 196.968994140625 418.14599609375 196.968994140625 C 418.14599609375 196.968994140625 425.864013671875 189.3329925537109 425.864013671875 177.7400054931641 C 425.864013671875 170.1609954833984 418.14599609375 167.8769989013672 418.14599609375 167.8769989013672 M 418.14599609375 164.8769989013672 C 418.4327392578125 164.8769989013672 418.719482421875 164.9181060791016 418.9972839355469 165.0003204345703 C 419.2512512207031 165.0754699707031 421.5453796386719 165.7871856689453 423.8602294921875 167.6088104248047 C 427.1337280273438 170.1847991943359 428.864013671875 173.6881103515625 428.864013671875 177.7400054931641 C 428.864013671875 190.4390258789062 420.607421875 198.7538757324219 420.2559509277344 199.1016082763672 C 419.0870056152344 200.2581329345703 417.2049255371094 200.2581329345703 416.0360412597656 199.1016082763672 C 415.6845703125 198.7538604736328 407.4280090332031 190.4390106201172 407.4280090332031 177.7400054931641 C 407.4280090332031 173.6881103515625 409.1582641601562 170.1847991943359 412.4317626953125 167.6088104248047 C 414.7466125488281 165.7871856689453 417.0407409667969 165.0754699707031 417.2947082519531 165.0003204345703 C 417.572509765625 164.9181060791016 417.8592529296875 164.8769989013672 418.14599609375 164.8769989013672 Z" stroke="none" fill="#fff"/>
            </g>
          </g>
          <g id="グループ_15" data-name="グループ 15">
            <g id="パス_61" data-name="パス 61" fill="#fff" stroke-linecap="round" stroke-linejoin="round">
              <path d="M 453.8727722167969 353.8173522949219 C 453.7760009765625 353.8173522949219 453.6774291992188 353.8141784667969 453.5797729492188 353.8079833984375 C 451.6380004882812 353.6835632324219 450.0266418457031 352.7526245117188 449.0418090820312 351.1865844726562 C 448.5760192871094 350.4458923339844 448.2650451660156 349.5801696777344 448.1264953613281 348.6487426757812 C 446.9609985351562 349.7639770507812 445.6275634765625 350.781494140625 443.9171752929688 350.781494140625 C 443.8133544921875 350.781494140625 443.7080688476562 350.777587890625 443.6041564941406 350.7698974609375 C 442.1144104003906 350.66015625 440.8601989746094 350.0696105957031 439.9777221679688 349.0621643066406 C 439.1466979980469 348.1134338378906 438.6983032226562 346.8538208007812 438.6810302734375 345.4195556640625 C 438.6637878417969 343.9880065917969 439.0818176269531 342.4322814941406 439.8899536132812 340.9205017089844 C 440.7377014160156 339.3345947265625 441.9642944335938 337.8599853515625 443.53564453125 336.5376281738281 C 446.0677185058594 334.4067993164062 450.6959838867188 331.7091369628906 458.3658142089844 330.9581298828125 C 458.9500732421875 330.9009399414062 459.5498046875 330.8719177246094 460.1484069824219 330.8719177246094 C 465.1495666503906 330.8719177246094 470.143798828125 332.8685302734375 473.1820678710938 336.0825500488281 L 474.2224731445312 337.1831970214844 L 473.1118774414062 338.2129516601562 C 470.68994140625 340.4585876464844 470.9291076660156 342.8146667480469 471.1823120117188 345.3091125488281 C 471.3146057128906 346.6122436523438 471.4395446777344 347.8430786132812 471.1725158691406 349.0385437011719 C 470.8386840820312 350.5329284667969 469.923583984375 351.671875 468.45263671875 352.4236755371094 C 467.5691528320312 352.875244140625 466.6543884277344 353.1042175292969 465.7337951660156 353.1042175292969 C 465.7336730957031 353.1042175292969 465.7336120605469 353.1042175292969 465.7334899902344 353.1042175292969 C 464.1273193359375 353.1041259765625 462.5768432617188 352.388671875 461.36767578125 351.0896911621094 C 460.7737426757812 350.45166015625 460.2760620117188 349.6954650878906 459.8868103027344 348.8468017578125 C 459.6966247558594 349.1182250976562 459.5086669921875 349.4014282226562 459.3277587890625 349.6740112304688 C 458.1025695800781 351.5199584960938 456.5778198242188 353.8173522949219 453.8727722167969 353.8173522949219 Z" stroke="none"/>
              <path d="M 460.1483764648438 332.3719177246094 C 459.6002502441406 332.3719177246094 459.0540771484375 332.3979187011719 458.5119934082031 332.4509887695312 C 439.6489868164062 334.2980041503906 436.5740051269531 348.7479858398438 443.7149963378906 349.2739868164062 C 446.1567077636719 349.4554443359375 447.8379821777344 346.31396484375 450.0799865722656 344.8320007324219 C 448.7139892578125 348.2120056152344 449.9760131835938 352.0740051269531 453.6749877929688 352.3110046386719 C 457.0537719726562 352.5271911621094 458.2059936523438 347.2049560546875 460.5790100097656 346.0539855957031 C 461.3469848632812 350.2499694824219 464.5337524414062 352.7420043945312 467.7699890136719 351.0880126953125 C 472.7260131835938 348.5549926757812 466.4039916992188 342.3869934082031 472.0920104980469 337.1130065917969 C 469.2860717773438 334.1447448730469 464.6713256835938 332.3721008300781 460.1483764648438 332.3719177246094 M 460.1477661132812 329.3719177246094 L 460.1477661132812 332.3719177246094 L 460.14794921875 329.3719177246094 C 462.757568359375 329.3720092773438 465.4249572753906 329.8788757324219 467.8623046875 330.8376770019531 C 470.3888244628906 331.83154296875 472.6052856445312 333.2888793945312 474.2721252441406 335.0521240234375 C 474.8221435546875 335.6339721679688 475.1167297363281 336.4115295410156 475.0903930664062 337.2117614746094 C 475.0640258789062 338.0119934082031 474.7188720703125 338.7684936523438 474.1317443847656 339.3128662109375 C 472.3447570800781 340.9697875976562 472.4083862304688 342.5345458984375 472.6746520996094 345.1576232910156 C 472.8131408691406 346.5221557617188 472.9563903808594 347.9331665039062 472.6364135742188 349.3655395507812 C 472.2006225585938 351.31640625 471.022705078125 352.794677734375 469.1352844238281 353.7593383789062 C 468.0384826660156 354.3199462890625 466.8939514160156 354.6042175292969 465.7335815429688 354.6042175292969 C 463.706298828125 354.6042175292969 461.765869140625 353.7190551757812 460.2697143554688 352.1117553710938 C 460.1176452636719 351.9483642578125 459.9710998535156 351.77880859375 459.8300476074219 351.6031799316406 C 459.3989868164062 352.2095336914062 458.9188232421875 352.8198852539062 458.3608093261719 353.364013671875 C 457.0315856933594 354.66015625 455.5215759277344 355.3173522949219 453.8727722167969 355.3173522949219 C 453.7443542480469 355.3173522949219 453.6137390136719 355.3131713867188 453.4844665527344 355.304931640625 C 451.0484313964844 355.1488647460938 449.0201721191406 353.9698791503906 447.7720336914062 351.985107421875 C 447.6151123046875 351.735595703125 447.4731750488281 351.4772033691406 447.3460388183594 351.2108459472656 C 446.37353515625 351.8386840820312 445.2508544921875 352.281494140625 443.9171752929688 352.281494140625 C 443.7764282226562 352.281494140625 443.6337890625 352.2761840820312 443.4931640625 352.2657775878906 C 441.6031494140625 352.1265563964844 439.9968566894531 351.3605041503906 438.8493957519531 350.050537109375 C 437.7796325683594 348.8292846679688 437.2027587890625 347.2341613769531 437.1811218261719 345.4375915527344 C 437.1608581542969 343.7539672851562 437.64013671875 341.9474487304688 438.5671081542969 340.21337890625 C 439.5051879882812 338.45849609375 440.8518981933594 336.8356628417969 442.56982421875 335.3899536132812 C 445.264404296875 333.1223754882812 450.1668090820312 330.2537841796875 458.2196350097656 329.4652709960938 C 458.8523864746094 329.4033203125 459.5010681152344 329.3719177246094 460.1477661132812 329.3719177246094 Z" stroke="none" fill="#fff"/>
            </g>
            <g id="パス_62" data-name="パス 62" fill="#fff" stroke-linecap="round" stroke-linejoin="round">
              <path d="M 405.1117858886719 354.38134765625 C 405.0150146484375 354.38134765625 404.9164428710938 354.378173828125 404.8187866210938 354.3719787597656 C 402.8767395019531 354.24755859375 401.26513671875 353.31640625 400.2801208496094 351.7500915527344 C 399.8144836425781 351.0096130371094 399.5035095214844 350.1442260742188 399.3648681640625 349.2132263183594 C 398.1995544433594 350.3283386230469 396.8663330078125 351.3455200195312 395.1561889648438 351.3455200195312 C 395.0523681640625 351.3455200195312 394.9470825195312 351.3416137695312 394.8431701660156 351.3338928222656 C 393.3534240722656 351.2241821289062 392.0991821289062 350.6336364746094 391.2167053222656 349.6261596679688 C 390.3856506347656 348.6773986816406 389.937255859375 347.4177856445312 389.9199829101562 345.9834899902344 C 389.9027709960938 344.5519714355469 390.3207702636719 342.9962158203125 391.1288452148438 341.4844665527344 C 391.9765930175781 339.8985595703125 393.203125 338.4239807128906 394.7743835449219 337.1016235351562 C 397.3063354492188 334.9708251953125 401.9343872070312 332.2731628417969 409.6038208007812 331.5221557617188 C 410.188232421875 331.4649353027344 410.7880859375 331.4359436035156 411.3867492675781 331.4359436035156 C 416.3883361816406 331.4359436035156 421.3827819824219 333.4325256347656 424.4210510253906 336.6465454101562 L 425.4615478515625 337.7472534179688 L 424.3507690429688 338.7770080566406 C 421.9282836914062 341.0227966308594 422.1673583984375 343.3789367675781 422.4204406738281 345.8734436035156 C 422.5526733398438 347.176513671875 422.6775512695312 348.4073181152344 422.4104614257812 349.6026916503906 C 422.0765991210938 351.0970153808594 421.1615295410156 352.2359008789062 419.690673828125 352.9876708984375 C 418.8071594238281 353.4392395019531 417.8923950195312 353.668212890625 416.9718017578125 353.668212890625 C 416.9716796875 353.668212890625 416.9716186523438 353.668212890625 416.9714965820312 353.668212890625 C 415.3653259277344 353.6681213378906 413.8148498535156 352.9526977539062 412.6056823730469 351.6536865234375 C 412.0118103027344 351.0157470703125 411.5141296386719 350.2595520019531 411.1249084472656 349.4110107421875 C 410.9348449707031 349.6823425292969 410.7469177246094 349.9655151367188 410.5661315917969 350.2380065917969 C 409.3412475585938 352.0839538574219 407.8168640136719 354.38134765625 405.1117858886719 354.38134765625 Z" stroke="none"/>
              <path d="M 411.3867492675781 332.9359436035156 C 410.8385314941406 332.9359130859375 410.2922058105469 332.9619445800781 409.75 333.0150146484375 C 390.8880004882812 334.8619995117188 387.81298828125 349.31201171875 394.9540100097656 349.8380126953125 C 397.3959655761719 350.0186767578125 399.0769653320312 346.8779907226562 401.3179931640625 345.39599609375 C 399.9519958496094 348.7760009765625 401.2149963378906 352.6380004882812 404.9140014648438 352.875 C 408.2935485839844 353.0901794433594 409.4440002441406 347.7690124511719 411.8169860839844 346.6180114746094 C 412.5849609375 350.8139343261719 415.7718200683594 353.3059692382812 419.0079956054688 351.6520080566406 C 423.9639892578125 349.1189880371094 417.6419982910156 342.9509887695312 423.3309936523438 337.677001953125 C 420.5250549316406 334.708740234375 415.9103698730469 332.9360961914062 411.3867492675781 332.9359436035156 M 411.3864440917969 329.9359436035156 L 411.3864440917969 332.9359436035156 L 411.3865356445312 329.9359436035156 C 413.9962158203125 329.93603515625 416.6637878417969 330.44287109375 419.1011962890625 331.4016418457031 C 421.6277465820312 332.3955078125 423.84423828125 333.8528442382812 425.5110778808594 335.6161193847656 C 426.0611267089844 336.197998046875 426.3557739257812 336.9756164550781 426.329345703125 337.7759094238281 C 426.3029479980469 338.576171875 425.957763671875 339.3326721191406 425.3705444335938 339.8770446777344 C 423.5830993652344 341.5340881347656 423.6466369628906 343.0989074707031 423.9127807617188 345.7220153808594 C 424.0512390136719 347.0864868164062 424.1943969726562 348.4974365234375 423.8743896484375 349.9297485351562 C 423.4385375976562 351.8804931640625 422.2606201171875 353.3587036132812 420.3733215332031 354.3233032226562 C 419.2764892578125 354.8839416503906 418.1319580078125 355.168212890625 416.9715881347656 355.168212890625 C 414.9443054199219 355.168212890625 413.0038757324219 354.2830505371094 411.5077209472656 352.6757507324219 C 411.3558044433594 352.5125732421875 411.209228515625 352.3429870605469 411.0683288574219 352.1675415039062 C 410.6374816894531 352.7737121582031 410.1575012207031 353.3839111328125 409.5997314453125 353.9279174804688 C 408.2706298828125 355.22412109375 406.7606811523438 355.88134765625 405.1117858886719 355.88134765625 C 404.9833679199219 355.88134765625 404.8527526855469 355.8771667480469 404.7234802246094 355.8689270019531 C 402.2871704101562 355.7128601074219 400.2586669921875 354.53369140625 399.0103149414062 352.548583984375 C 398.8536071777344 352.2993774414062 398.7117004394531 352.0411376953125 398.5846862792969 351.7751159667969 C 397.6122741699219 352.40283203125 396.4897155761719 352.8455200195312 395.1561889648438 352.8455200195312 C 395.0154418945312 352.8455200195312 394.872802734375 352.8402099609375 394.732177734375 352.8298034667969 C 392.8421325683594 352.6905822753906 391.23583984375 351.9244995117188 390.0883483886719 350.6145324707031 C 389.0186157226562 349.3932495117188 388.4417419433594 347.7981262207031 388.4201049804688 346.0015563964844 C 388.3998413085938 344.3179321289062 388.8790588378906 342.5114440917969 389.8059997558594 340.77734375 C 390.7440490722656 339.0224914550781 392.0906982421875 337.399658203125 393.8085632324219 335.9539489746094 C 396.5030212402344 333.6863708496094 401.4052124023438 330.8178100585938 409.4576416015625 330.029296875 C 410.0904235839844 329.9673461914062 410.7393798828125 329.9359436035156 411.3864440917969 329.9359436035156 Z" stroke="none" fill="#fff"/>
            </g>
            <g id="パス_63" data-name="パス 63" fill="#fff" stroke-linecap="round" stroke-linejoin="round">
              <path d="M 454.0669860839844 282.7000122070312 C 451.5929565429688 282.7000122070312 449.1878662109375 282.2111511230469 446.9185180664062 281.2470703125 C 444.7299499511719 280.3172912597656 442.7624816894531 278.9880676269531 441.0707092285156 277.2962951660156 C 439.3789367675781 275.6045227050781 438.0497131347656 273.6370239257812 437.1199340820312 271.4484558105469 C 436.1558227539062 269.1791076660156 435.6669921875 266.7740478515625 435.6669921875 264.2999877929688 C 435.6669921875 261.8259582519531 436.1558227539062 259.4208679199219 437.1199340820312 257.1515197753906 C 438.0497131347656 254.9629669189453 439.3789367675781 252.9954833984375 441.0707092285156 251.3037261962891 C 442.7624816894531 249.6119537353516 444.7299499511719 248.28271484375 446.9185180664062 247.3529510498047 C 449.1878662109375 246.3888397216797 451.5929565429688 245.8999938964844 454.0669860839844 245.8999938964844 C 457.2660522460938 245.8999938964844 460.3818969726562 246.7330780029297 463.152099609375 248.3194274902344 C 472.4073486328125 238.4682464599609 478.8337097167969 225.9285583496094 479.6167297363281 216.0860443115234 L 479.6391906738281 215.8036956787109 L 479.7630615234375 215.5489654541016 C 479.8082885742188 215.4559783935547 479.8543090820312 215.3639526367188 479.900390625 215.2719116210938 C 480.0091247558594 215.0546875 480.11181640625 214.8495178222656 480.1928100585938 214.6475524902344 C 482.0930480957031 209.9004211425781 483.7272033691406 205.1634063720703 485.0495300292969 200.5691223144531 L 486.0390930175781 197.1308898925781 L 487.79736328125 200.2468414306641 C 490.2658081054688 204.6213073730469 491.4072265625 209.7363891601562 491.1899108886719 215.4500122070312 C 490.9405822753906 222.0347595214844 488.7808227539062 229.5302886962891 484.9441528320312 237.1260375976562 C 481.3591613769531 244.2235260009766 476.5108337402344 251.0347442626953 470.8853454589844 256.8854370117188 C 471.935546875 259.2377624511719 472.4670104980469 261.7267456054688 472.4670104980469 264.2999877929688 C 472.4670104980469 266.7740478515625 471.9781799316406 269.1791076660156 471.0140686035156 271.4484558105469 C 470.0842895507812 273.6370239257812 468.7550659179688 275.6045227050781 467.0632934570312 277.2962951660156 C 465.3715209960938 278.9880676269531 463.4040222167969 280.3172912597656 461.2154541015625 281.2470703125 C 458.9461364746094 282.2111511230469 456.5410461425781 282.7000122070312 454.0669860839844 282.7000122070312 Z" stroke="none"/>
              <path d="M 486.4909973144531 200.9840087890625 C 485.1820068359375 205.531982421875 483.56201171875 210.2669982910156 481.5849914550781 215.2059936523438 C 481.4429931640625 215.5599975585938 481.2720031738281 215.8760070800781 481.1119995117188 216.2050170898438 C 480.260986328125 226.9019927978516 473.1239929199219 240.2319946289062 463.3970031738281 250.2339935302734 C 460.718994140625 248.447998046875 457.510009765625 247.3999938964844 454.0669860839844 247.3999938964844 C 444.7720031738281 247.3999938964844 437.1669921875 255.0050048828125 437.1669921875 264.2999877929688 C 437.1669921875 273.5950012207031 444.7720031738281 281.2000122070312 454.0669860839844 281.2000122070312 C 463.3619995117188 281.2000122070312 470.9670104980469 273.5950012207031 470.9670104980469 264.2999877929688 C 470.9670104980469 261.5239868164062 470.2770080566406 258.9070129394531 469.0790100097656 256.5899963378906 C 480.8299865722656 244.6869964599609 489.1940002441406 228.5180053710938 489.6910095214844 215.3930053710938 C 489.8980102539062 209.9500122070312 488.8039855957031 205.0830078125 486.4909973144531 200.9840087890625 M 486.4918823242188 197.9839477539062 C 487.564697265625 197.9839477539062 488.5677490234375 198.559814453125 489.1037292480469 199.5097045898438 C 491.7106323242188 204.1295776367188 492.9168395996094 209.5118408203125 492.6888427734375 215.5070190429688 C 492.431396484375 222.3055725097656 490.21630859375 230.0153503417969 486.2830200195312 237.8023376464844 C 482.7766418457031 244.7441864013672 478.084716796875 251.4162139892578 472.6454162597656 257.2105102539062 C 473.5233459472656 259.4768981933594 473.9670104980469 261.8529052734375 473.9670104980469 264.2999877929688 C 473.9670104980469 266.9766845703125 473.43798828125 269.5791015625 472.3946533203125 272.0349731445312 C 471.3892822265625 274.4014892578125 469.9524230957031 276.5285034179688 468.1239318847656 278.35693359375 C 466.2955017089844 280.1854248046875 464.1684875488281 281.6222839355469 461.8019714355469 282.6276550292969 C 459.3460998535156 283.6709899902344 456.7436828613281 284.2000122070312 454.0669860839844 284.2000122070312 C 451.3902893066406 284.2000122070312 448.7878723144531 283.6709899902344 446.3320007324219 282.6276550292969 C 443.9655151367188 281.6222839355469 441.8385009765625 280.1854248046875 440.0100402832031 278.35693359375 C 438.1815795898438 276.5285034179688 436.7447204589844 274.4014892578125 435.7393493652344 272.0349731445312 C 434.6960144042969 269.5791015625 434.1669921875 266.9766845703125 434.1669921875 264.2999877929688 C 434.1669921875 261.623291015625 434.6960144042969 259.0208740234375 435.7393493652344 256.5650024414062 C 436.7447204589844 254.1985168457031 438.1815795898438 252.0715179443359 440.0100402832031 250.2430572509766 C 441.8385009765625 248.4145965576172 443.9655151367188 246.9777374267578 446.3320007324219 245.9723510742188 C 448.7878723144531 244.9290161132812 451.3902893066406 244.3999938964844 454.0669860839844 244.3999938964844 C 457.1261291503906 244.3999938964844 460.1141052246094 245.103515625 462.8358459472656 246.4514312744141 C 466.7967224121094 242.0927276611328 470.2606811523438 237.166259765625 472.926513671875 232.0861358642578 C 475.9435424804688 226.3367919921875 477.7398986816406 220.762939453125 478.1214599609375 215.9671020507812 C 478.151123046875 215.5939025878906 478.2504272460938 215.2295532226562 478.4141540527344 214.8928833007812 C 478.4618530273438 214.7947998046875 478.5103759765625 214.6977233886719 478.5589904785156 214.6006164550781 C 478.6575622558594 214.4036560058594 478.7427062988281 214.2335815429688 478.8006591796875 214.089111328125 C 480.6818542480469 209.3894653320312 482.299560546875 204.700439453125 483.6080322265625 200.1542358398438 C 483.9423522949219 198.99267578125 484.9410705566406 198.1452331542969 486.1415405273438 198.0044250488281 C 486.2587890625 197.9906921386719 486.3757629394531 197.9839477539062 486.4918823242188 197.9839477539062 Z" stroke="none" fill="#fff"/>
            </g>
            <g id="パス_64" data-name="パス 64" fill="#fff" stroke-linecap="round" stroke-linejoin="round">
              <path d="M 383.3580017089844 309.322998046875 C 382.0147705078125 309.322998046875 380.71630859375 308.7638854980469 379.7955017089844 307.7889709472656 C 375.0396118164062 302.7609558105469 371.3029479980469 298.6173095703125 368.0367431640625 294.7494506835938 C 364.0165710449219 289.9886779785156 360.78564453125 285.7288513183594 358.1593627929688 281.7265625 C 351.7954711914062 272.0282287597656 349.0567932128906 263.8737182617188 349.7868957519531 256.7970581054688 C 350.2650146484375 252.1691741943359 352.2316284179688 248.0142974853516 355.6378173828125 244.4290618896484 C 350.9202880859375 237.1351623535156 347.6454467773438 229.5462188720703 346.14501953125 222.4135284423828 C 345.2889709472656 218.3440704345703 345.0242309570312 214.4641876220703 345.3581848144531 210.881591796875 C 345.71923828125 207.0082550048828 346.7826232910156 203.4651184082031 348.5188598632812 200.3506317138672 L 350.2718505859375 197.2059936523438 L 351.2702026367188 200.6650390625 C 352.5890502929688 205.2346343994141 354.2135620117188 209.9393768310547 356.0985717773438 214.6485748291016 C 356.2322692871094 214.9828186035156 356.3965454101562 215.3057861328125 356.5704956054688 215.6477203369141 L 356.6245422363281 215.7541046142578 L 356.7639770507812 216.0287628173828 L 356.7838745117188 216.3361358642578 C 356.9939575195312 219.5832672119141 357.801025390625 223.0626983642578 359.1825561523438 226.6777801513672 C 360.5663757324219 230.2987823486328 362.5262451171875 234.0484008789062 365.014892578125 237.8385314941406 C 367.9635620117188 236.5337066650391 370.9423828125 235.8733062744141 373.8875732421875 235.8733062744141 C 375.5766296386719 235.8733062744141 377.2788696289062 236.0917816162109 378.9471130371094 236.5226745605469 C 385.8352966308594 238.3023834228516 392.52587890625 243.7090911865234 399.4012451171875 253.0517883300781 C 405.9430847167969 261.9413146972656 411.867919921875 273.4111328125 416.2987365722656 282.4104309082031 C 416.8165588378906 283.4613647460938 416.9404296875 284.6654357910156 416.6473693847656 285.8003845214844 C 416.3541870117188 286.9358825683594 415.6624450683594 287.929443359375 414.6995849609375 288.5980834960938 L 411.1854858398438 291.0413513183594 C 410.3525695800781 293.3376159667969 408.1736450195312 294.8949890136719 405.6969909667969 294.8949890136719 C 402.4679870605469 294.8949890136719 399.8410034179688 292.2675476074219 399.8410034179688 289.0379943847656 C 399.8410034179688 285.931884765625 402.2703857421875 283.3826599121094 405.3280944824219 283.1914978027344 C 405.409912109375 283.1347961425781 405.5070190429688 283.0661926269531 405.6187744140625 282.985107421875 C 405.6108703613281 282.9495849609375 405.6006469726562 282.915283203125 405.5899963378906 282.8919677734375 C 400.3407287597656 272.4983520507812 395.8925476074219 264.9179992675781 391.5933227539062 259.0404357910156 C 386.1301574707031 251.5716552734375 381.0506286621094 247.1880340576172 376.4957885742188 246.0113372802734 C 375.6135559082031 245.7832946777344 374.7187805175781 245.6676788330078 373.8361511230469 245.6676788330078 C 371.2431945800781 245.6676788330078 368.5920104980469 246.6342926025391 365.7310791015625 248.6227264404297 C 363.8039855957031 249.9627227783203 362.310546875 251.417236328125 361.2925720214844 252.9457397460938 C 360.2922668457031 254.4476776123047 359.7173767089844 256.0364990234375 359.5350646972656 257.802978515625 C 359.0522766113281 262.4842529296875 361.3944702148438 268.7748413085938 366.4966735839844 276.4999389648438 C 370.5118103027344 282.5791931152344 376.0713806152344 289.390380859375 383.9930114746094 297.9352111816406 C 384.0042724609375 297.9465637207031 384.0215148925781 297.9601745605469 384.04052734375 297.9732971191406 C 384.2616577148438 297.8140258789062 384.4433288574219 297.685791015625 384.5889892578125 297.5845336914062 C 385.4322509765625 295.3081970214844 387.6051940917969 293.7650146484375 390.0650024414062 293.7650146484375 C 393.2945556640625 293.7650146484375 395.9219970703125 296.3924560546875 395.9219970703125 299.6220092773438 C 395.9219970703125 302.7303466796875 393.4881591796875 305.2809143066406 390.4260864257812 305.468017578125 L 386.1546020507812 308.4446716308594 C 385.3298034667969 309.0193176269531 384.36279296875 309.322998046875 383.3580017089844 309.322998046875 Z" stroke="none"/>
              <path d="M 383.3580017089844 307.822998046875 C 384.031005859375 307.822998046875 384.7099914550781 307.6229858398438 385.2969970703125 307.2139892578125 L 389.9549865722656 303.9679870605469 C 389.9920043945312 303.968994140625 390.0270080566406 303.97900390625 390.0650024414062 303.97900390625 C 392.4710083007812 303.97900390625 394.4219970703125 302.0289916992188 394.4219970703125 299.6220092773438 C 394.4219970703125 297.2149963378906 392.4710083007812 295.2650146484375 390.0650024414062 295.2650146484375 C 388.0360107421875 295.2650146484375 386.3460083007812 296.6579895019531 385.8609924316406 298.5350036621094 C 385.8609924316406 298.5350036621094 385.5379943847656 298.739990234375 384.7850036621094 299.2860107421875 C 384.0320434570312 299.8320922851562 383.2039794921875 299.2900390625 382.8930053710938 298.9549865722656 C 370.1180114746094 285.1749877929688 356.8900146484375 268.8280029296875 358.0429992675781 257.6489868164062 C 358.4549865722656 253.6569976806641 360.6900024414062 250.3009948730469 364.875 247.3910064697266 C 369.0590209960938 244.4830169677734 372.9790344238281 243.5529937744141 376.8710021972656 244.5590057373047 C 387.7479858398438 247.3690032958984 398.4620056152344 265.4509887695312 406.9309997558594 282.2200012207031 C 407.1400146484375 282.6340026855469 407.3330078125 283.5809936523438 406.718994140625 284.0379943847656 C 406.1050109863281 284.4949951171875 405.7829895019531 284.6889953613281 405.7829895019531 284.6889953613281 C 405.7539978027344 284.68798828125 405.7260131835938 284.6799926757812 405.6969909667969 284.6799926757812 C 403.2909851074219 284.6799926757812 401.3410034179688 286.6310119628906 401.3410034179688 289.0379943847656 C 401.3410034179688 291.4440002441406 403.2909851074219 293.3949890136719 405.6969909667969 293.3949890136719 C 407.7330017089844 293.3949890136719 409.4289855957031 291.9920043945312 409.906005859375 290.10400390625 L 413.843994140625 287.3659973144531 C 415.2250061035156 286.4070129394531 415.6960144042969 284.5809936523438 414.9530029296875 283.072998046875 C 404.4939880371094 261.8299865722656 392.8460083007812 241.6629943847656 378.5719909667969 237.9750061035156 C 373.8991394042969 236.7680358886719 369.1760559082031 237.3860015869141 364.4869995117188 239.7469940185547 C 358.4500122070312 230.8869934082031 355.7090148925781 222.9550018310547 355.2869873046875 216.4329986572266 C 355.0849914550781 216.0350189208984 354.8800048828125 215.6410064697266 354.7059936523438 215.2059936523438 C 352.7430114746094 210.302001953125 351.1329956054688 205.5989990234375 349.8290100097656 201.0809936523438 C 343.0570068359375 213.2290191650391 348.114013671875 230.4819946289062 357.5610046386719 244.6239929199219 C 353.885986328125 248.1399993896484 351.7630004882812 252.2660064697266 351.2789916992188 256.9509887695312 C 349.7659912109375 271.6159973144531 364.614990234375 289.5570068359375 380.885986328125 306.7590026855469 C 381.5490112304688 307.4609985351562 382.4500122070312 307.822998046875 383.3580017089844 307.822998046875 M 383.3580017089844 310.822998046875 C 381.6038818359375 310.822998046875 379.9078979492188 310.0925598144531 378.7050170898438 308.8189392089844 C 373.9300537109375 303.7707824707031 370.1755065917969 299.6071166992188 366.8907165527344 295.7172241210938 C 362.8312072753906 290.909912109375 359.56494140625 286.6027221679688 356.9052734375 282.5494689941406 C 350.3443908691406 272.5509643554688 347.5278625488281 264.076904296875 348.2948303222656 256.6431274414062 C 348.76953125 252.0482635498047 350.6043701171875 247.8956451416016 353.7569580078125 244.2682189941406 C 349.2734680175781 237.1205902099609 346.1480102539062 229.7144622802734 344.6771545410156 222.7223052978516 C 343.7901000976562 218.5055084228516 343.5167541503906 214.4748840332031 343.8646545410156 210.7423858642578 C 344.2451782226562 206.6600799560547 345.3702697753906 202.9180603027344 347.2086486816406 199.6202697753906 C 347.7983703613281 198.5623931884766 348.9665832519531 197.9628601074219 350.1696166992188 198.1004028320312 C 351.3729248046875 198.2378997802734 352.3755187988281 199.0854644775391 352.7113647460938 200.2490997314453 C 354.0164489746094 204.7709197998047 355.6246032714844 209.4280700683594 357.4911499023438 214.0911407470703 C 357.5998840332031 214.3629760742188 357.742431640625 214.6431884765625 357.907470703125 214.9676818847656 L 357.9621276855469 215.0751953125 C 358.1460876464844 215.4376525878906 358.2544860839844 215.8336791992188 358.2807312011719 216.2392730712891 C 358.6667785644531 222.2050933837891 361.1871643066406 228.9875640869141 365.5981750488281 235.9736480712891 C 368.35107421875 234.9105377197266 371.12939453125 234.3733062744141 373.8876037597656 234.3733062744141 C 375.7030639648438 234.3733062744141 377.5315551757812 234.6078338623047 379.3222351074219 235.0703430175781 C 386.5581665039062 236.9398956298828 393.5211791992188 242.5308532714844 400.609375 252.1627349853516 C 407.2210998535156 261.147216796875 413.186279296875 272.6929931640625 417.6444702148438 281.7478332519531 C 418.3206787109375 283.1203308105469 418.4825134277344 284.6929931640625 418.0997314453125 286.1754150390625 C 417.7167358398438 287.6587219238281 416.8130187988281 288.9566345214844 415.5551147460938 289.8301391601562 L 412.4092102050781 292.0174560546875 C 411.2491455078125 294.64599609375 408.6404724121094 296.3949890136719 405.6969909667969 296.3949890136719 C 401.6408996582031 296.3949890136719 398.3410034179688 293.0946655273438 398.3410034179688 289.0379943847656 C 398.3410034179688 285.7580871582031 400.4978637695312 282.9724426269531 403.4671325683594 282.0254821777344 C 398.5939331054688 272.493408203125 394.4169616699219 265.4414367675781 390.3826293945312 259.926025390625 C 385.1294860839844 252.7443237304688 380.3310546875 248.5513763427734 376.1206359863281 247.4636383056641 C 375.3606872558594 247.2672271728516 374.5922241210938 247.1676788330078 373.8361511230469 247.1676788330078 C 371.5595397949219 247.1676788330078 369.1883544921875 248.0465240478516 366.587158203125 249.8544464111328 C 364.8156127929688 251.0862579345703 363.4541320800781 252.4061737060547 362.541015625 253.7772064208984 C 361.6790466308594 255.0714721679688 361.183837890625 256.4386901855469 361.0271301269531 257.9569702148438 C 360.5808410644531 262.2843017578125 362.8421325683594 268.2449951171875 367.748291015625 275.6732788085938 C 371.5136413574219 281.3742980957031 376.6681213378906 287.7427978515625 383.9025268554688 295.6248779296875 C 385.228759765625 293.572998046875 387.5250854492188 292.2650146484375 390.0650024414062 292.2650146484375 C 394.1216735839844 292.2650146484375 397.4219970703125 295.5653381347656 397.4219970703125 299.6220092773438 C 397.4219970703125 303.3760986328125 394.595458984375 306.4825134277344 390.9588623046875 306.9250183105469 L 387.01220703125 309.6753234863281 C 385.9345703125 310.4261779785156 384.6710205078125 310.822998046875 383.3580017089844 310.822998046875 Z" stroke="none" fill="#fff"/>
            </g>
          </g>
          <g id="楕円形_5" data-name="楕円形 5" transform="translate(444.124 254.357)" fill="#386cb0" stroke="#fff" stroke-linecap="round" stroke-linejoin="round" stroke-width="3">
            <circle cx="9.942" cy="9.942" r="9.942" stroke="none"/>
            <circle cx="9.942" cy="9.942" r="11.442" fill="none"/>
          </g>
          <g id="グループ_16" data-name="グループ 16">
            <g id="楕円形_6" data-name="楕円形 6" transform="translate(411.189 115.796)" fill="#386cb0" stroke="#fff" stroke-linecap="round" stroke-linejoin="round" stroke-width="3">
              <circle cx="6.957" cy="6.957" r="6.957" stroke="none"/>
              <circle cx="6.957" cy="6.957" r="8.457" fill="none"/>
            </g>
            <g id="パス_65" data-name="パス 65" fill="#386cb0" stroke-linecap="round" stroke-linejoin="round">
              <path d="M 386.9169921875 180.0760040283203 C 380.4859924316406 180.0760040283203 375.2539978027344 174.8448944091797 375.2539978027344 168.4149932861328 C 375.2539978027344 161.9834442138672 380.4859924316406 156.7510070800781 386.9169921875 156.7510070800781 C 393.3479919433594 156.7510070800781 398.5799865722656 161.9834442138672 398.5799865722656 168.4149932861328 C 398.5799865722656 174.8448944091797 393.3479919433594 180.0760040283203 386.9169921875 180.0760040283203 Z" stroke="none"/>
              <path d="M 386.9169921875 158.2510070800781 C 381.31298828125 158.2510070800781 376.7539978027344 162.8099975585938 376.7539978027344 168.4149932861328 C 376.7539978027344 174.0180053710938 381.31298828125 178.5760040283203 386.9169921875 178.5760040283203 C 392.5190124511719 178.5760040283203 397.0799865722656 174.0180053710938 397.0799865722656 168.4149932861328 C 397.0799865722656 162.8099975585938 392.5190124511719 158.2510070800781 386.9169921875 158.2510070800781 M 386.9169921875 155.2510070800781 C 394.1750793457031 155.2510070800781 400.0799865722656 161.1563415527344 400.0799865722656 168.4149932861328 C 400.0799865722656 175.6719970703125 394.1750793457031 181.5760040283203 386.9169921875 181.5760040283203 C 379.6589050292969 181.5760040283203 373.7539978027344 175.6719970703125 373.7539978027344 168.4149932861328 C 373.7539978027344 161.1563415527344 379.6589050292969 155.2510070800781 386.9169921875 155.2510070800781 Z" stroke="none" fill="#fff"/>
            </g>
            <g id="パス_66" data-name="パス 66" fill="#386cb0" stroke-linecap="round" stroke-linejoin="round">
              <path d="M 449.375 180.0760040283203 C 442.9445495605469 180.0760040283203 437.7130126953125 174.8448944091797 437.7130126953125 168.4149932861328 C 437.7130126953125 161.9834442138672 442.9445495605469 156.7510070800781 449.375 156.7510070800781 C 455.8065490722656 156.7510070800781 461.0390014648438 161.9834442138672 461.0390014648438 168.4149932861328 C 461.0390014648438 174.8448944091797 455.8065490722656 180.0760040283203 449.375 180.0760040283203 Z" stroke="none"/>
              <path d="M 449.375 158.2510070800781 C 443.77099609375 158.2510070800781 439.2130126953125 162.8099975585938 439.2130126953125 168.4149932861328 C 439.2130126953125 174.0180053710938 443.77099609375 178.5760040283203 449.375 178.5760040283203 C 454.9809875488281 178.5760040283203 459.5390014648438 174.0180053710938 459.5390014648438 168.4149932861328 C 459.5390014648438 162.8099975585938 454.9809875488281 158.2510070800781 449.375 158.2510070800781 M 449.375 155.2510070800781 C 456.6336364746094 155.2510070800781 462.5390014648438 161.1563415527344 462.5390014648438 168.4149932861328 C 462.5390014648438 175.6719970703125 456.6336364746094 181.5760040283203 449.375 181.5760040283203 C 442.1174621582031 181.5760040283203 436.2130126953125 175.6719970703125 436.2130126953125 168.4149932861328 C 436.2130126953125 161.1563415527344 442.1174621582031 155.2510070800781 449.375 155.2510070800781 Z" stroke="none" fill="#fff"/>
            </g>
          </g>
          <g id="グループ_17" data-name="グループ 17">
            <g id="パス_67" data-name="パス 67" fill="#fff" stroke-linecap="round" stroke-linejoin="round">
              <path d="M 455.9190063476562 167.9889984130859 C 452.9138488769531 167.9889984130859 450.468994140625 165.5441436767578 450.468994140625 162.5390014648438 C 450.468994140625 159.5338592529297 452.9138488769531 157.0890045166016 455.9190063476562 157.0890045166016 C 458.9241333007812 157.0890045166016 461.3689880371094 159.5338592529297 461.3689880371094 162.5390014648438 C 461.3689880371094 165.5441436767578 458.9241333007812 167.9889984130859 455.9190063476562 167.9889984130859 Z" stroke="none"/>
              <path d="M 455.9190063476562 158.5890045166016 C 453.7380065917969 158.5890045166016 451.968994140625 160.3580017089844 451.968994140625 162.5390014648438 C 451.968994140625 164.7209930419922 453.7380065917969 166.4889984130859 455.9190063476562 166.4889984130859 C 458.1010131835938 166.4889984130859 459.8689880371094 164.7209930419922 459.8689880371094 162.5390014648438 C 459.8689880371094 160.3580017089844 458.1010131835938 158.5890045166016 455.9190063476562 158.5890045166016 M 455.9190063476562 155.5890045166016 C 459.7512512207031 155.5890045166016 462.8689880371094 158.7067565917969 462.8689880371094 162.5390014648438 C 462.8689880371094 166.3712463378906 459.7512512207031 169.4889984130859 455.9190063476562 169.4889984130859 C 452.0867614746094 169.4889984130859 448.968994140625 166.3712463378906 448.968994140625 162.5390014648438 C 448.968994140625 158.7067565917969 452.0867614746094 155.5890045166016 455.9190063476562 155.5890045166016 Z" stroke="none" fill="#fff"/>
            </g>
            <g id="パス_68" data-name="パス 68" fill="#fff" stroke-linecap="round" stroke-linejoin="round">
              <path d="M 393.3670043945312 167.9889984130859 C 390.3618469238281 167.9889984130859 387.9169921875 165.5441436767578 387.9169921875 162.5390014648438 C 387.9169921875 159.5338592529297 390.3618469238281 157.0890045166016 393.3670043945312 157.0890045166016 C 396.3726806640625 157.0890045166016 398.8179931640625 159.5338592529297 398.8179931640625 162.5390014648438 C 398.8179931640625 165.5441436767578 396.3726806640625 167.9889984130859 393.3670043945312 167.9889984130859 Z" stroke="none"/>
              <path d="M 393.3670043945312 158.5890045166016 C 391.1860046386719 158.5890045166016 389.4169921875 160.3580017089844 389.4169921875 162.5390014648438 C 389.4169921875 164.7209930419922 391.1860046386719 166.4889984130859 393.3670043945312 166.4889984130859 C 395.5490112304688 166.4889984130859 397.3179931640625 164.7209930419922 397.3179931640625 162.5390014648438 C 397.3179931640625 160.3580017089844 395.5490112304688 158.5890045166016 393.3670043945312 158.5890045166016 M 393.3670043945312 155.5890045166016 C 397.1997985839844 155.5890045166016 400.3179931640625 158.7067565917969 400.3179931640625 162.5390014648438 C 400.3179931640625 166.3712463378906 397.1997985839844 169.4889984130859 393.3670043945312 169.4889984130859 C 389.5347595214844 169.4889984130859 386.4169921875 166.3712463378906 386.4169921875 162.5390014648438 C 386.4169921875 158.7067565917969 389.5347595214844 155.5890045166016 393.3670043945312 155.5890045166016 Z" stroke="none" fill="#fff"/>
            </g>
          </g>
        </g>
      </g>
    </g>
    <g id="グループ_23" data-name="グループ 23">
      <g id="グループ_11-2" data-name="グループ 11">
        <path id="パス_35-2" data-name="パス 35" d="M214.133,456.443a17.659,17.659,0,0,1-3.874.418H186.1V440.4a22.048,22.048,0,0,1,.43-3.934,1.021,1.021,0,0,0-1-1.208H174.5a1.021,1.021,0,0,0-1.006,1.188,19.77,19.77,0,0,1,.344,3.954v16.456H143.763a20.514,20.514,0,0,1-3.894-.423,1.023,1.023,0,0,0-1.249.994V462a1.019,1.019,0,0,0,.385.8,1.032,1.032,0,0,0,.863.2,18.545,18.545,0,0,1,3.9-.421H173.84v1.847c0,10.724-1.936,18.543-6.107,24.624-4.556,6.962-14.54,13.277-21.8,13.79a1.021,1.021,0,0,0-.879,1.388l1.435,3.676a1.02,1.02,0,0,0,.643.6,1.026,1.026,0,0,0,.874-.124,7.779,7.779,0,0,1,2.45-.954l.857-.262c25.306-7.491,35.059-19.478,34.785-42.74v-1.847h24.162a19.316,19.316,0,0,1,3.936.43,1.021,1.021,0,0,0,1.206-1v-4.571a1.02,1.02,0,0,0-1.268-.989Z" fill="#fff"/>
        <path id="パス_36-2" data-name="パス 36" d="M281.823,435.367a1.02,1.02,0,0,0-1.617.281c-3.118,6.235-16.428,19.2-25.917,25.242-10.1,6.823-25.186,13.275-31.643,13.537a1.021,1.021,0,0,0-.919,1.363l1.254,3.5a1.022,1.022,0,0,0,1.448.551,11.363,11.363,0,0,1,3.477-1.061,131.926,131.926,0,0,0,29.428-9.694v34.951a17.993,17.993,0,0,1-.425,4.27,1.02,1.02,0,0,0,1,1.23h10.485a1.019,1.019,0,0,0,1-1.22,25.019,25.019,0,0,1-.428-4.28V462.927a92.682,92.682,0,0,0,18.2-15.293,19.977,19.977,0,0,1,2.829-2.838,1.019,1.019,0,0,0,.079-1.542Z" fill="#fff"/>
        <path id="パス_37-2" data-name="パス 37" d="M368.594,475.836l-2.116-1.322a105.536,105.536,0,0,0-37.015-15.406V440.137a26.038,26.038,0,0,1,.429-4.293,1.019,1.019,0,0,0-1-1.208H318.4a1.019,1.019,0,0,0-1,1.22,18.473,18.473,0,0,1,.428,4.281v63.538a17.978,17.978,0,0,1-.426,4.27,1.021,1.021,0,0,0,1,1.231H328.89a1.021,1.021,0,0,0,1-1.221,24.954,24.954,0,0,1-.427-4.28V465.242a85.04,85.04,0,0,1,31.47,21.1,1.021,1.021,0,0,0,1.589-.094l6.363-8.96a1.022,1.022,0,0,0-.291-1.456Z" fill="#fff"/>
        <path id="パス_38-2" data-name="パス 38" d="M439.049,452.538h5.018a.747.747,0,0,0,.734-1.02l-3.37-12.008a1.448,1.448,0,0,0-1.306-1.02h-5.018a.747.747,0,0,0-.734,1.02l3.37,12.008A1.45,1.45,0,0,0,439.049,452.538Z" fill="#fff"/>
        <path id="パス_39-2" data-name="パス 39" d="M443.879,475.836l-2.116-1.322a105.5,105.5,0,0,0-37.016-15.406V440.137a26.045,26.045,0,0,1,.43-4.293,1.02,1.02,0,0,0-1-1.208H393.69a1.019,1.019,0,0,0-1,1.22,18.528,18.528,0,0,1,.428,4.281v63.538a18.029,18.029,0,0,1-.426,4.27,1.021,1.021,0,0,0,1,1.231h10.485a1.022,1.022,0,0,0,1-1.221,24.959,24.959,0,0,1-.428-4.28V465.242a85.031,85.031,0,0,1,31.47,21.1.99.99,0,0,0,.817.334,1.018,1.018,0,0,0,.771-.428l6.363-8.96a1.016,1.016,0,0,0,.169-.791A1.027,1.027,0,0,0,443.879,475.836Z" fill="#fff"/>
        <path id="パス_40-2" data-name="パス 40" d="M427.386,452.538H432.4a.746.746,0,0,0,.733-1.02l-3.369-12.008a1.451,1.451,0,0,0-1.307-1.02h-5.018a.747.747,0,0,0-.734,1.02l3.37,12.008A1.451,1.451,0,0,0,427.386,452.538Z" fill="#fff"/>
        <path id="パス_41-2" data-name="パス 41" d="M530.541,447.183h-36.2a62.182,62.182,0,0,0,2.3-5.9,40.731,40.731,0,0,1,1.474-3.823,1.02,1.02,0,0,0-.649-1.442l-10.754-2.867a1.017,1.017,0,0,0-1.279.9c-.524,6.635-5.624,19.483-10.118,25.474-4.768,6.635-11.936,12.758-14.462,13.117a1.019,1.019,0,0,0-.7,1.587l2.152,3.137a1.022,1.022,0,0,0,.784.443,1.009,1.009,0,0,0,.831-.356,11.687,11.687,0,0,1,2.837-1.913c12.77-6.739,19.077-12.527,24.685-22.734h25.988c-2.611,16.39-9.757,29.65-21.254,39.431-7.656,6.6-18.328,11.772-24.825,12.032a1.017,1.017,0,0,0-.906,1.4l1.432,3.584a1.016,1.016,0,0,0,.55.561,1,1,0,0,0,.4.081,1.034,1.034,0,0,0,.389-.077,26.278,26.278,0,0,1,3.984-1.3c31.511-7.9,48.106-25.509,53.807-57.089v0l.538-3.046a1.019,1.019,0,0,0-1-1.2Z" fill="#fff"/>
        <path id="パス_42-2" data-name="パス 42" d="M618.576,445.3H582.8c.624-1.4,1.178-2.8,1.716-4.346a12.933,12.933,0,0,1,1.661-3.836,1.02,1.02,0,0,0-.566-1.546L575.4,432.615a1.02,1.02,0,0,0-1.3.865c-.608,5.389-5.053,16.836-8.824,22.71-4.193,6.991-14.186,16.245-17.541,17.006a1.019,1.019,0,0,0-.608,1.582l2.15,3.048a1.02,1.02,0,0,0,.833.433h.014a1.022,1.022,0,0,0,.834-.454.929.929,0,0,1,.184-.183c.063-.054.129-.111.2-.178.231-.128.59-.343,1.064-.631.458-.276,1.032-.624,1.735-1.037,7.57-4.679,10.732-6.789,14.071-9.786a93.153,93.153,0,0,1,20.708,20.4c-8.974,9.177-23.661,17.093-32.488,17.433a1.021,1.021,0,0,0-.919,1.369l1.345,3.674a1.015,1.015,0,0,0,.57.591,1,1,0,0,0,.388.078,1.04,1.04,0,0,0,.433-.1,18.943,18.943,0,0,1,4.54-1.362c34.184-7.658,51.7-26.659,56.8-61.61a1.022,1.022,0,0,0-1.01-1.167Zm-12.246,5.626c-1.92,10.067-5.64,19.771-10.337,26.984A108.319,108.319,0,0,0,572.8,461.53a60.423,60.423,0,0,0,7.309-10.6Z" fill="#fff"/>
        <path id="パス_43-2" data-name="パス 43" d="M702.669,469.89a1.017,1.017,0,0,0-.873-.186,19.266,19.266,0,0,1-3.877.416H635.456a15.325,15.325,0,0,1-3.677-.382,1.02,1.02,0,0,0-1.377.956v6.271a1.02,1.02,0,0,0,1.423.938,10.622,10.622,0,0,1,3.631-.364h62.463a22.093,22.093,0,0,1,3.923.426,1.019,1.019,0,0,0,.847-.211,1.023,1.023,0,0,0,.372-.789v-6.271A1.017,1.017,0,0,0,702.669,469.89Z" fill="#fff"/>
      </g>
      <g id="グループ_12-2" data-name="グループ 12">
        <path id="パス_44-2" data-name="パス 44" d="M289.088,530.8H287.76a.306.306,0,0,0-.306.307v13.959l-11.3-14.15a.307.307,0,0,0-.239-.116H272.1a.307.307,0,0,0-.306.307v20.755a.307.307,0,0,0,.306.307h1.3a.307.307,0,0,0,.306-.307V534.532l13.928,17.523a.309.309,0,0,0,.239.116h1.218a.306.306,0,0,0,.3-.307V531.109A.306.306,0,0,0,289.088,530.8Z" fill="#fff"/>
        <path id="長方形_2-2" data-name="長方形 2" d="M.307,0H4.042a.306.306,0,0,1,.306.306V21.061a.307.307,0,0,1-.307.307H.306A.306.306,0,0,1,0,21.062V.307A.307.307,0,0,1,.307,0Z" transform="translate(299.431 530.802)" fill="#fff"/>
        <path id="パス_45-2" data-name="パス 45" d="M332.582,542.148h-6.67a.306.306,0,0,0-.306.307v1.107a.306.306,0,0,0,.306.307h2.849v5.809a7.911,7.911,0,0,1-3.761.911,6.7,6.7,0,0,1-4.233-1.644,9.145,9.145,0,0,1-3.182-7.209c0-5.353,3-9.545,6.833-9.545a6.93,6.93,0,0,1,5.706,3.116.307.307,0,0,0,.216.119.36.36,0,0,0,.234-.079l1.937-1.771a.306.306,0,0,0-.012-.463c-2.2-1.807-4.772-2.613-8.33-2.613-6.688,0-11.181,4.584-11.181,11.4,0,6.638,4.139,10.6,11.07,10.6a13.71,13.71,0,0,0,8.709-2.858.307.307,0,0,0,.121-.244v-6.946A.306.306,0,0,0,332.582,542.148Z" fill="#fff"/>
        <path id="パス_46-2" data-name="パス 46" d="M360.3,530.8h-3.569a.307.307,0,0,0-.306.307v9.075H345.945v-9.075a.307.307,0,0,0-.306-.307H342.07a.306.306,0,0,0-.306.307v20.755a.306.306,0,0,0,.306.307h3.569a.307.307,0,0,0,.306-.307v-9.959H356.43v9.959a.307.307,0,0,0,.306.307H360.3a.306.306,0,0,0,.306-.307V531.109A.306.306,0,0,0,360.3,530.8Z" fill="#fff"/>
        <path id="パス_47-2" data-name="パス 47" d="M387.7,530.8h-19.2a.307.307,0,0,0-.306.307v1.108a.307.307,0,0,0,.306.307h7.47v19.34a.306.306,0,0,0,.306.307h3.68a.306.306,0,0,0,.306-.307v-19.34H387.7a.307.307,0,0,0,.306-.307v-1.108A.307.307,0,0,0,387.7,530.8Z" fill="#fff"/>
        <path id="パス_48-2" data-name="パス 48" d="M423.925,531.908a16.811,16.811,0,0,0-5.657-1.106h-8.384a.307.307,0,0,0-.306.307v20.755a.307.307,0,0,0,.306.307h8.495c7.493,0,11.292-3.558,11.292-10.573C429.671,537.108,427.578,533.578,423.925,531.908Zm-10.138.616h4.26a7.3,7.3,0,0,1,4.664,1.633c1.559,1.429,2.53,4.289,2.53,7.469,0,3.435-1.086,6.23-2.983,7.672a6.783,6.783,0,0,1-4.073,1.153h-4.4Z" fill="#fff"/>
        <path id="パス_49-2" data-name="パス 49" d="M448.869,530.5c-6.787,0-11.348,4.382-11.348,10.905,0,6.949,4.243,11.1,11.348,11.1,7.036,0,11.238-4.129,11.238-11.044C460.107,534.8,455.7,530.5,448.869,530.5Zm-.028,1.775c3.911,0,6.64,3.753,6.64,9.13,0,5.733-2.544,9.295-6.64,9.295-4.068,0-6.7-3.627-6.7-9.241C442.145,536.138,444.962,532.275,448.841,532.275Z" fill="#fff"/>
        <path id="パス_50-2" data-name="パス 50" d="M479.3,532.191a7.091,7.091,0,0,1,5.584,3.184.307.307,0,0,0,.229.135.333.333,0,0,0,.249-.1l1.827-1.936a.309.309,0,0,0,.081-.231.3.3,0,0,0-.115-.219,11.328,11.328,0,0,0-7.688-2.528c-6.746,0-11.459,4.7-11.459,11.431,0,6.62,4.221,10.572,11.292,10.572a11.919,11.919,0,0,0,7.855-2.779.305.305,0,0,0,.064-.41l-.692-1.024a.307.307,0,0,0-.207-.132.3.3,0,0,0-.237.064,9.968,9.968,0,0,1-6.23,2.367c-4.012,0-7.275-3.985-7.275-8.881C472.582,536.281,475.471,532.191,479.3,532.191Z" fill="#fff"/>
        <path id="パス_51-2" data-name="パス 51" d="M513.643,530.8H494.438a.308.308,0,0,0-.307.307v1.108a.308.308,0,0,0,.307.307h7.469v19.34a.307.307,0,0,0,.307.307h3.679a.307.307,0,0,0,.307-.307v-19.34h7.443a.308.308,0,0,0,.307-.307v-1.108A.308.308,0,0,0,513.643,530.8Z" fill="#fff"/>
        <path id="パス_52-2" data-name="パス 52" d="M531.764,530.5c-6.787,0-11.35,4.382-11.35,10.905,0,6.949,4.244,11.1,11.35,11.1,7.034,0,11.236-4.129,11.236-11.044C543,534.8,538.589,530.5,531.764,530.5Zm-.028,1.775c3.909,0,6.638,3.753,6.638,9.13,0,5.733-2.544,9.295-6.638,9.295-4.068,0-6.7-3.627-6.7-9.241C525.04,536.138,527.855,532.275,531.736,532.275Z" fill="#fff"/>
        <path id="パス_53-2" data-name="パス 53" d="M569.841,551.7l-6.577-9.945c.291-.038.6-.092.807-.132a5.219,5.219,0,0,0,4.3-5.2,5.022,5.022,0,0,0-2.737-4.669,10.4,10.4,0,0,0-5.233-.951h-8.469a.307.307,0,0,0-.307.307v20.755a.307.307,0,0,0,.307.307h3.57a.308.308,0,0,0,.307-.307v-9.987h2.761l6.415,10.15a.3.3,0,0,0,.259.144h4.343a.3.3,0,0,0,.269-.162A.31.31,0,0,0,569.841,551.7Zm-14.033-19.171h2.876a8.656,8.656,0,0,1,3.046.366,3.817,3.817,0,0,1-.639,7.134,11.443,11.443,0,0,1-2.3.132h-2.986Z" fill="#fff"/>
      </g>
    </g>
  </g>
</svg>
